<svg width="59" height="30" viewBox="0 0 59 30" fill="none" xmlns="http://www.w3.org/2000/svg">
<path d="M26.74 8.14998C26.42 8.47998 26.11 8.80998 25.81 9.14998C25.62 9.58998 25.55 10.08 25.56 10.59C25.66 10.79 25.75 10.98 25.88 11.17C26.08 11.46 26.32 11.72 26.57 11.98C26.63 12.04 26.54 12.13 26.49 12.07C26.2 11.78 25.83 11.44 25.59 11.06C25.7 12.2 26.1 13.41 26.26 14.4C26.28 14.5 26.11 14.53 26.08 14.43C25.99 14.07 25.91 13.7 25.82 13.34C25.77 13.69 25.66 14.04 25.55 14.38C25.52 14.48 25.36 14.45 25.39 14.35C25.52 13.93 25.58 13.49 25.71 13.07C25.71 13.05 25.73 13.04 25.74 13.03C25.57 12.32 25.41 11.6 25.29 10.88C25.22 10.46 25.22 10.08 25.3 9.71999C25.12 9.91999 24.95 10.12 24.78 10.32C24.64 10.84 24.55 11.35 24.5 11.87C24.56 12.1 24.6 12.34 24.67 12.58C24.76 12.89 24.86 13.19 24.94 13.5C24.96 13.57 24.86 13.6 24.84 13.53C24.74 13.18 24.57 12.8 24.46 12.41C24.34 14.27 24.65 16.11 25.11 17.96C25.15 18.1 24.93 18.18 24.89 18.03C24.54 16.87 24.27 15.7 24.14 14.51C24.01 14.96 23.82 15.4 23.66 15.81C23.62 15.91 23.47 15.83 23.51 15.73C23.74 15.12 23.87 14.48 24.08 13.87C24.02 12.9 24.06 11.92 24.26 10.94C23.58 11.77 22.92 12.62 22.3 13.48C22.48 14.76 22.84 16 23.18 17.25C23.57 17.92 24.01 18.6 24.31 19.31C24.34 19.38 24.23 19.43 24.19 19.37C23.88 18.93 23.62 18.45 23.37 17.97C23.61 18.89 23.82 19.81 23.91 20.75C23.92 20.88 23.7 20.93 23.67 20.79C23.27 18.9 22.69 17.03 22.32 15.13C22.15 15.61 21.98 16.09 21.8 16.56C21.77 16.65 21.61 16.6 21.64 16.5C21.83 15.89 22.02 15.27 22.24 14.67C22.19 14.36 22.14 14.05 22.1 13.74C21.99 13.9 21.88 14.05 21.77 14.21C21.77 14.24 21.63 14.45 21.57 14.53C21.21 15.38 21.04 16.24 21 17.12C21.09 17.28 21.18 17.45 21.27 17.62C21.44 17.92 21.66 18.17 21.91 18.4C21.98 18.47 21.88 18.58 21.81 18.52C21.57 18.32 21.37 18.09 21.21 17.82C21.13 17.68 21.06 17.53 20.99 17.38C20.95 19.28 21.48 21.21 21.98 23.1C22.01 23.21 21.85 23.26 21.82 23.15C21.71 22.82 21.6 22.48 21.49 22.15C21.49 22.28 21.46 22.42 21.46 22.55C21.46 22.66 21.29 22.67 21.29 22.55C21.29 22.24 21.29 21.94 21.34 21.63C20.74 19.56 20.4 17.42 20.99 15.4C20.6 16.01 20.23 16.63 19.87 17.25C19.73 17.88 19.66 18.51 19.64 19.13C19.97 19.66 20.36 20.19 20.62 20.76C20.66 20.84 20.54 20.89 20.49 20.83C20.16 20.43 19.91 19.95 19.65 19.5C19.65 21.34 20.08 23.15 20.31 25.02C20.32 25.12 20.16 25.15 20.14 25.05C19.98 24.45 19.82 23.83 19.69 23.19C19.57 23.64 19.42 24.08 19.33 24.54C19.31 24.64 19.16 24.61 19.17 24.51C19.26 23.95 19.35 23.35 19.59 22.83C19.59 22.82 19.61 22.82 19.61 22.81C19.29 21.18 19.16 19.48 19.5 17.91C19.21 18.43 18.94 18.97 18.67 19.5C18.5 20.1 18.38 20.7 18.3 21.29C18.45 21.87 18.66 22.44 18.76 23.02C18.77 23.09 18.66 23.12 18.63 23.06C18.43 22.7 18.32 22.28 18.23 21.86C18.07 23.43 18.11 25 18.15 26.64C18.15 26.8 17.92 26.81 17.91 26.65C17.89 26.23 17.87 25.79 17.84 25.36C17.7 25.71 17.55 26.05 17.4 26.39C17.36 26.47 17.24 26.41 17.28 26.33C17.47 25.88 17.64 25.43 17.82 24.98C17.75 23.67 17.72 22.32 17.95 21.04C16.83 23.55 15.94 26.18 15.31 28.95C15.28 29.08 15.07 29.04 15.1 28.91C15.52 26.95 16.08 25.02 16.77 23.14C15.7 24.28 14.62 25.39 13.54 26.51C13.46 26.59 13.34 26.48 13.41 26.4C14.59 25.09 15.74 23.77 16.94 22.48C16.97 22.45 17 22.43 17.04 22.43C17.52 21.17 18.06 19.94 18.66 18.74C17.98 19.35 17.17 19.83 16.43 20.38C16.08 20.64 15.74 20.91 15.41 21.18C14.85 21.92 14.31 22.66 13.82 23.45C13.76 23.54 13.61 23.47 13.67 23.37C14 22.82 14.35 22.28 14.72 21.76C13.93 22.44 13.17 23.16 12.44 23.91C12.35 24 12.21 23.87 12.29 23.78C13.25 22.75 14.25 21.77 15.34 20.87C15.78 20.5 16.25 20.16 16.72 19.82C16.21 19.91 15.67 19.91 15.17 19.89C15.08 19.89 15.08 19.75 15.17 19.76C15.83 19.76 16.46 19.63 17.11 19.54C17.81 19.03 18.5 18.5 19.1 17.87C19.1 17.87 19.11 17.87 19.12 17.87C19.41 17.31 19.72 16.76 20.03 16.22C18.99 17.14 17.79 17.85 16.51 18.37C15.79 18.88 15 19.3 14.24 19.74C14.16 19.78 14.09 19.67 14.16 19.63C14.67 19.33 15.16 19 15.67 18.69C14.88 18.95 14.06 19.13 13.22 19.24C13.11 19.25 13.11 19.09 13.22 19.08C14.98 18.77 16.54 18.16 17.94 17.3C17.24 17.44 16.51 17.42 15.82 17.28C15.72 17.26 15.75 17.11 15.85 17.12C16.79 17.29 17.64 17.17 18.53 16.9C19.34 16.34 20.1 15.69 20.81 14.95C21.32 14.16 21.85 13.38 22.42 12.62C22.29 12.69 22.16 12.75 22.03 12.81C21.93 12.85 21.87 12.87 21.71 12.94C21.17 13.15 20.61 13.3 20.04 13.47C19.63 13.59 19.22 13.71 18.8 13.83C18.02 14.35 17.21 14.9 16.37 15.31C16.28 15.35 16.2 15.2 16.29 15.15C16.87 14.85 17.38 14.45 17.93 14.08C16.79 14.41 15.65 14.73 14.51 15.05C14.42 15.08 14.37 14.94 14.46 14.91C15.96 14.42 17.46 13.92 18.97 13.45C19.67 13.23 20.4 13.05 21.1 12.8C20.46 12.66 19.83 12.5 19.2 12.35C19.11 12.33 19.14 12.19 19.23 12.21C19.97 12.36 20.72 12.5 21.46 12.67C22.03 12.45 22.57 12.17 23.05 11.79C23.27 11.51 23.49 11.23 23.72 10.95C22.31 11.28 20.89 11.45 19.46 11.45C18.99 11.6 18.54 11.76 18.1 11.99C18.04 12.03 17.97 11.93 18.04 11.89C18.31 11.72 18.59 11.57 18.89 11.44C18.27 11.42 17.64 11.38 17.02 11.3C16.89 11.28 16.94 11.1 17.06 11.11C18.88 11.26 20.7 11.17 22.48 10.85C22.34 10.81 22.19 10.78 22.06 10.73C21.77 10.62 21.5 10.48 21.24 10.31C21.16 10.26 21.22 10.12 21.31 10.17C21.65 10.37 22.01 10.52 22.38 10.63C22.53 10.67 22.7 10.69 22.84 10.77C23.27 10.68 23.7 10.58 24.12 10.46C24.24 10.32 24.36 10.17 24.49 10.03C24.49 10.03 24.5 10.02 24.51 10.01C24.66 9.84 24.81 9.67 24.97 9.51C23.93 9.72 22.85 9.65999 21.81 9.40999C21.44 9.47999 21.08 9.52999 20.72 9.65999C20.63 9.68999 20.58 9.55 20.67 9.51C20.89 9.43 21.12 9.35 21.37 9.29C20.95 9.16 20.54 9.00997 20.14 8.82997C20.02 8.76997 20.11 8.59998 20.23 8.64998C21.5 9.13998 22.73 9.27998 24.01 9.23998C23.72 8.92998 23.45 8.58 23.21 8.23C23.15 8.13 23.3 8.02999 23.36 8.12999C23.63 8.52999 23.93 8.88 24.25 9.23C24.6 9.21 24.94 9.18 25.3 9.14C25.69 8.72 26.09 8.29998 26.51 7.89998C26.66 7.75998 26.9 7.95997 26.75 8.10997L26.74 8.14998Z" fill="url(#paint0_radial_2_15)"/>
<g opacity="0.26">
<path d="M24.94 9.82001C22.96 11.77 21.3 14.24 19.89 16.62C19.86 16.67 19.94 16.72 19.97 16.67C21.47 14.25 23.27 12.12 24.93 9.82999L24.94 9.82001Z" fill="white"/>
</g>
<g opacity="0.26">
<path d="M17.82 14.06C19.48 13.63 21.13 13.06 22.65 12.26C22.7 12.24 22.65 12.17 22.61 12.19C21.03 12.89 19.47 13.52 17.8 13.98C17.75 13.99 17.77 14.07 17.82 14.06Z" fill="white"/>
</g>
<g opacity="0.26">
<path d="M15.81 18.67C17.31 17.93 18.8 17.09 20.12 16.05C20.17 16.01 20.11 15.93 20.06 15.97C18.67 16.92 17.28 17.83 15.76 18.57C15.69 18.6 15.76 18.7 15.82 18.67H15.81Z" fill="white"/>
</g>
<g opacity="0.26">
<path d="M15.98 20.68C17 19.87 18.04 19.08 19.04 18.24C19.08 18.21 19.03 18.14 18.98 18.17C17.91 18.92 16.91 19.78 15.92 20.62C15.88 20.65 15.94 20.71 15.98 20.68Z" fill="white"/>
</g>
<g opacity="0.26">
<path d="M22.93 12.15C22.49 12.8 22.02 13.45 21.65 14.14C21.63 14.18 21.69 14.22 21.72 14.18C22.18 13.54 22.57 12.85 23.01 12.2C23.04 12.15 22.96 12.11 22.93 12.15Z" fill="white"/>
</g>
<g opacity="0.26">
<path d="M20.86 11.28C21.81 11.22 22.75 11.06 23.64 10.74C23.71 10.72 23.68 10.61 23.61 10.63C22.7 10.92 21.81 11.13 20.85 11.2C20.8 11.2 20.8 11.28 20.85 11.28H20.86Z" fill="white"/>
</g>
<g opacity="0.26">
<path d="M22.13 11.16C22.57 11.08 23.03 11.01 23.45 10.85C23.51 10.83 23.49 10.74 23.42 10.76C22.98 10.85 22.54 10.98 22.1 11.06C22.04 11.07 22.06 11.17 22.13 11.16Z" fill="white"/>
</g>
<g opacity="0.26">
<path d="M23.43 10.93C23.53 10.92 23.63 10.88 23.71 10.8C23.74 10.76 23.7 10.7 23.66 10.73C23.59 10.78 23.52 10.82 23.44 10.83C23.38 10.83 23.38 10.94 23.44 10.93H23.43Z" fill="white"/>
</g>
<g opacity="0.26">
<path d="M24.3 10.38C24.18 10.51 24.05 10.64 23.93 10.78C23.89 10.82 23.95 10.89 23.99 10.84C24.11 10.71 24.23 10.58 24.36 10.44C24.4 10.4 24.34 10.33 24.3 10.38Z" fill="white"/>
</g>
<g opacity="0.26">
<path d="M18.47 19.69C17.07 22.38 15.97 25.2 15.24 28.14C15.23 28.2 15.32 28.23 15.33 28.17C16.12 25.24 17.16 22.45 18.53 19.73C18.55 19.69 18.49 19.65 18.46 19.69H18.47Z" fill="white"/>
</g>
<g opacity="0.26">
<path d="M18.33 19.79C17.36 21.88 16.49 24.03 15.85 26.25C15.83 26.32 15.93 26.34 15.95 26.28C16.7 24.1 17.48 21.95 18.41 19.84C18.43 19.78 18.35 19.73 18.33 19.79Z" fill="white"/>
</g>
<g opacity="0.26">
<path d="M17.07 22.65C16.91 23.15 16.74 23.65 16.59 24.16C16.57 24.23 16.67 24.25 16.69 24.19C16.87 23.69 17.01 23.18 17.17 22.68C17.19 22.61 17.09 22.58 17.06 22.65H17.07Z" fill="white"/>
</g>
<path d="M16.77 22.77C15.8 23.96 14.8 25.12 13.78 26.27Z" fill="url(#paint1_radial_2_15)"/>
<g opacity="0.26">
<path d="M16.09 23.49C15.76 23.87 15.43 24.25 15.12 24.64C15.08 24.69 15.15 24.76 15.19 24.71C15.52 24.33 15.83 23.94 16.15 23.55C16.18 23.51 16.13 23.46 16.09 23.49Z" fill="white"/>
</g>
<g opacity="0.26">
<path d="M19.48 18.12C19.39 20.25 19.54 22.38 19.97 24.47C19.98 24.53 20.06 24.5 20.05 24.45C19.7 22.34 19.52 20.26 19.56 18.13C19.56 18.08 19.48 18.08 19.48 18.13V18.12Z" fill="white"/>
</g>
<g opacity="0.26">
<path d="M19.41 20.23C19.46 21.29 19.58 22.38 19.85 23.41C19.86 23.45 19.93 23.44 19.92 23.39C19.73 22.34 19.56 21.29 19.47 20.23C19.47 20.19 19.41 20.19 19.41 20.23Z" fill="white"/>
</g>
<g opacity="0.26">
<path d="M21.15 14.97C20.71 17.07 20.71 19.23 21.25 21.31C21.26 21.35 21.33 21.34 21.32 21.29C20.9 19.16 20.83 17.13 21.23 14.99C21.23 14.94 21.17 14.92 21.15 14.97Z" fill="white"/>
</g>
<g opacity="0.26">
<path d="M20.79 17.59C20.91 18.5 21.01 19.41 21.18 20.31C21.18 20.34 21.23 20.33 21.23 20.31C21.15 19.4 21 18.49 20.86 17.59C20.86 17.55 20.78 17.56 20.79 17.59Z" fill="white"/>
</g>
<g opacity="0.26">
<path d="M22.41 14.69C22.68 16.33 23.02 17.97 23.47 19.57C23.48 19.62 23.55 19.6 23.54 19.55C23.16 17.93 22.79 16.31 22.47 14.67C22.47 14.63 22.4 14.65 22.41 14.69Z" fill="white"/>
</g>
<g opacity="0.26">
<path d="M22.79 16.36C22.92 17.27 23.15 18.18 23.54 19.02C23.56 19.06 23.63 19.03 23.62 18.99C23.3 18.12 23.03 17.26 22.9 16.34C22.89 16.27 22.79 16.3 22.8 16.37L22.79 16.36Z" fill="white"/>
</g>
<g opacity="0.26">
<path d="M23.17 17.52C23.17 17.52 23.18 17.61 23.2 17.66C23.21 17.7 23.23 17.74 23.24 17.78C23.27 17.86 23.29 17.94 23.34 18C23.36 18.03 23.41 18.02 23.41 17.98C23.41 17.89 23.37 17.81 23.34 17.73C23.32 17.69 23.31 17.64 23.29 17.6C23.27 17.56 23.25 17.54 23.23 17.5C23.21 17.47 23.17 17.5 23.18 17.52H23.17Z" fill="white"/>
</g>
<g opacity="0.26">
<path d="M24.56 10.41C24.15 11.08 24.16 12.08 24.14 12.84C24.11 13.88 24.21 14.91 24.44 15.93C24.45 15.99 24.53 15.96 24.53 15.91C24.28 14.38 23.86 11.91 24.65 10.47C24.68 10.42 24.6 10.37 24.57 10.42L24.56 10.41Z" fill="white"/>
</g>
<g opacity="0.26">
<path d="M24.25 11.62C24.08 12.81 24.07 14.01 24.29 15.19C24.3 15.25 24.39 15.22 24.38 15.17C24.21 13.98 24.18 12.82 24.33 11.63C24.33 11.59 24.26 11.58 24.25 11.62Z" fill="white"/>
</g>
<g opacity="0.26">
<path d="M24.15 13.35C24.11 13.94 24.14 14.52 24.27 15.1C24.28 15.15 24.35 15.13 24.34 15.08C24.25 14.5 24.2 13.94 24.24 13.35C24.24 13.29 24.15 13.29 24.15 13.35Z" fill="white"/>
</g>
<g opacity="0.26">
<path d="M25.69 8.74C25.43 9.37 25.29 10.03 25.34 10.71C25.34 10.76 25.42 10.76 25.42 10.71C25.42 10.03 25.52 9.39 25.78 8.77C25.8 8.71 25.71 8.69001 25.69 8.75001V8.74Z" fill="white"/>
</g>
<g opacity="0.76">
<path d="M22.93 12.25C22.63 12.59 22.33 12.96 22.12 13.37C22.1 13.4 22.15 13.43 22.17 13.4C22.44 13.04 22.69 12.66 22.99 12.32C23.03 12.28 22.96 12.22 22.93 12.26V12.25Z" fill="white"/>
</g>
<g opacity="0.26">
<path d="M21.14 9.22C22.27 9.46 23.42 9.59001 24.58 9.48001C24.66 9.48001 24.66 9.35999 24.58 9.35999C23.43 9.36999 22.3 9.34001 21.17 9.14001C21.11 9.14001 21.09 9.21001 21.15 9.23001L21.14 9.22Z" fill="white"/>
</g>
<g opacity="0.76">
<path d="M21.44 9.25C22.07 9.4 22.71 9.48001 23.36 9.48001C23.41 9.48001 23.41 9.41 23.36 9.41C22.72 9.38 22.09 9.31 21.46 9.19C21.41 9.19 21.4 9.25001 21.44 9.26001V9.25Z" fill="white"/>
</g>
<g opacity="0.76">
<path d="M21.11 11.28C21.45 11.21 21.79 11.14 22.12 11.04C22.14 11.04 22.13 11.01 22.12 11.01C21.78 11.06 21.44 11.15 21.1 11.22C21.06 11.22 21.08 11.29 21.12 11.28H21.11Z" fill="white"/>
</g>
<g opacity="0.76">
<path d="M22.55 11.04C22.73 11 22.91 10.96 23.09 10.91C23.14 10.9 23.12 10.82 23.07 10.83C22.89 10.87 22.71 10.91 22.53 10.96C22.48 10.97 22.5 11.05 22.55 11.04Z" fill="white"/>
</g>
<g opacity="0.76">
<path d="M20.46 15.63C20.25 15.81 20.04 16 19.86 16.22C19.86 16.23 19.86 16.25 19.88 16.24C20.09 16.05 20.27 15.84 20.46 15.64V15.63Z" fill="white"/>
</g>
<g opacity="0.76">
<path d="M16.84 18.11C17.59 17.84 18.21 17.39 18.84 16.91C18.84 16.91 18.84 16.89 18.84 16.9C18.21 17.35 17.56 17.8 16.84 18.08C16.82 18.08 16.83 18.12 16.84 18.11Z" fill="white"/>
</g>
<g opacity="0.76">
<path d="M16.81 19.99C17.46 19.52 18.08 19.01 18.67 18.47C18.68 18.47 18.67 18.44 18.65 18.45C18.04 18.96 17.41 19.45 16.77 19.94C16.74 19.96 16.77 20.01 16.8 19.99H16.81Z" fill="white"/>
</g>
<g opacity="0.76">
<path d="M19.47 18.72C19.43 19.87 19.44 21 19.62 22.14C19.62 22.16 19.66 22.15 19.65 22.14C19.56 21 19.47 19.87 19.48 18.73H19.47V18.72Z" fill="white"/>
</g>
<g opacity="0.76">
<path d="M18.54 19.4C18.08 20.48 17.63 21.57 17.18 22.66C17.17 22.69 17.22 22.7 17.23 22.67C17.69 21.59 18.14 20.51 18.58 19.42C18.59 19.39 18.54 19.37 18.53 19.4H18.54Z" fill="white"/>
</g>
<g opacity="0.76">
<path d="M16.86 23.32C16.81 23.54 16.73 23.75 16.63 23.96C16.61 24 16.67 24.03 16.69 23.99C16.8 23.78 16.88 23.56 16.92 23.33C16.92 23.29 16.87 23.27 16.86 23.31V23.32Z" fill="white"/>
</g>
<path d="M26.93 7.3C27.32 7.61 27.71 7.92 28.09 8.24C28.36 8.68 28.51 9.20002 28.57 9.76002C28.49 9.99002 28.42 10.22 28.31 10.44C28.13 10.79 27.92 11.1 27.69 11.42C27.64 11.49 27.74 11.58 27.79 11.51C28.06 11.15 28.41 10.73 28.61 10.28C28.66 11.53 28.41 12.9 28.38 14C28.38 14.11 28.57 14.12 28.58 14C28.62 13.6 28.66 13.19 28.7 12.78C28.81 13.15 28.98 13.52 29.15 13.86C29.2 13.96 29.37 13.9 29.32 13.8C29.12 13.36 28.99 12.9 28.78 12.47C28.78 12.45 28.76 12.44 28.74 12.44C28.81 11.64 28.88 10.85 28.91 10.05C28.92 9.59 28.87 9.17002 28.72 8.79002C28.94 8.98002 29.16 9.16999 29.38 9.35999C29.61 9.89999 29.78 10.44 29.92 10.99C29.89 11.25 29.88 11.52 29.84 11.78C29.79 12.13 29.73 12.47 29.69 12.82C29.69 12.9 29.8 12.92 29.81 12.84C29.86 12.45 29.99 12 30.05 11.57C30.46 13.56 30.4 15.61 30.18 17.68C30.16 17.84 30.4 17.89 30.43 17.73C30.63 16.42 30.74 15.11 30.71 13.81C30.92 14.27 31.19 14.73 31.43 15.14C31.49 15.24 31.64 15.14 31.58 15.04C31.24 14.42 31 13.74 30.68 13.11C30.6 12.04 30.4 10.99 30.04 9.96C30.91 10.76 31.74 11.57 32.54 12.42C32.54 13.83 32.33 15.23 32.15 16.64C31.83 17.43 31.46 18.22 31.23 19.04C31.21 19.12 31.33 19.16 31.37 19.09C31.64 18.57 31.84 18.01 32.04 17.45C31.92 18.48 31.83 19.51 31.87 20.55C31.87 20.7 32.12 20.71 32.13 20.56C32.28 18.45 32.63 16.34 32.74 14.22C32.99 14.71 33.25 15.21 33.52 15.69C33.57 15.78 33.73 15.7 33.68 15.61C33.38 14.97 33.08 14.34 32.76 13.72C32.77 13.38 32.78 13.03 32.77 12.69C32.91 12.84 33.05 13 33.19 13.15C33.19 13.18 33.38 13.39 33.46 13.46C33.97 14.32 34.29 15.23 34.47 16.17C34.39 16.36 34.33 16.56 34.25 16.76C34.12 17.11 33.91 17.42 33.67 17.7C33.6 17.78 33.72 17.89 33.8 17.81C34.03 17.56 34.22 17.28 34.34 16.96C34.41 16.79 34.46 16.62 34.51 16.45C34.84 18.5 34.56 20.68 34.3 22.79C34.29 22.91 34.46 22.94 34.48 22.82C34.55 22.44 34.62 22.06 34.68 21.68C34.71 21.82 34.75 21.97 34.77 22.11C34.79 22.23 34.97 22.21 34.96 22.09C34.92 21.76 34.86 21.42 34.77 21.1C35.11 18.77 35.15 16.4 34.21 14.29C34.72 14.89 35.22 15.51 35.7 16.13C35.95 16.79 36.12 17.46 36.23 18.13C35.95 18.75 35.6 19.39 35.42 20.04C35.39 20.13 35.53 20.16 35.57 20.09C35.86 19.61 36.07 19.05 36.28 18.52C36.55 20.51 36.36 22.54 36.39 24.59C36.39 24.7 36.57 24.71 36.58 24.59C36.67 23.92 36.74 23.22 36.79 22.51C36.99 22.98 37.22 23.44 37.39 23.92C37.43 24.03 37.59 23.97 37.55 23.86C37.36 23.27 37.18 22.63 36.84 22.11C36.84 22.1 36.82 22.1 36.81 22.09C36.91 20.28 36.8 18.41 36.18 16.76C36.57 17.28 36.95 17.82 37.32 18.36C37.59 18.99 37.81 19.61 37.99 20.25C37.92 20.9 37.77 21.55 37.75 22.2C37.75 22.28 37.87 22.3 37.9 22.23C38.06 21.81 38.12 21.34 38.15 20.87C38.57 22.55 38.75 24.26 38.96 26.03C38.98 26.2 39.24 26.18 39.22 26.01C39.18 25.55 39.14 25.08 39.1 24.6C39.3 24.96 39.52 25.31 39.73 25.65C39.78 25.73 39.9 25.65 39.85 25.57C39.57 25.12 39.33 24.65 39.06 24.19C38.94 22.76 38.77 21.29 38.33 19.94C39.92 22.49 41.28 25.21 42.39 28.11C42.44 28.25 42.66 28.17 42.61 28.03C41.85 25.97 40.96 23.96 39.93 22.03C41.26 23.1 42.6 24.14 43.94 25.2C44.04 25.28 44.16 25.14 44.06 25.06C42.59 23.82 41.13 22.56 39.64 21.35C39.6 21.32 39.56 21.31 39.52 21.31C38.81 20.02 38.03 18.77 37.2 17.55C38.03 18.11 38.98 18.51 39.86 18.99C40.27 19.22 40.68 19.46 41.09 19.7C41.8 20.42 42.51 21.14 43.15 21.92C43.23 22.01 43.38 21.91 43.3 21.81C42.86 21.27 42.4 20.74 41.92 20.23C42.88 20.85 43.81 21.51 44.72 22.22C44.83 22.3 44.97 22.15 44.86 22.06C43.67 21.09 42.43 20.18 41.12 19.37C40.59 19.04 40.03 18.74 39.47 18.44C40.03 18.47 40.62 18.38 41.15 18.28C41.24 18.26 41.23 18.12 41.14 18.13C40.42 18.23 39.72 18.18 39.01 18.19C38.17 17.74 37.34 17.27 36.6 16.68C36.6 16.68 36.59 16.68 36.58 16.68C36.18 16.12 35.77 15.57 35.34 15.03C36.6 15.87 38.01 16.46 39.48 16.83C40.34 17.27 41.26 17.61 42.15 17.97C42.24 18.01 42.3 17.87 42.22 17.83C41.63 17.58 41.04 17.3 40.44 17.04C41.34 17.2 42.26 17.28 43.18 17.26C43.3 17.26 43.28 17.09 43.16 17.08C41.21 17.01 39.43 16.59 37.78 15.86C38.56 15.91 39.35 15.77 40.08 15.52C40.19 15.48 40.13 15.32 40.02 15.36C39.02 15.69 38.09 15.69 37.09 15.53C36.13 15.05 35.21 14.46 34.32 13.77C33.65 12.99 32.95 12.23 32.23 11.49C32.38 11.55 32.53 11.6 32.68 11.64C32.8 11.67 32.86 11.68 33.05 11.74C33.66 11.88 34.3 11.96 34.94 12.06C35.4 12.13 35.87 12.2 36.33 12.26C37.26 12.71 38.21 13.18 39.19 13.5C39.29 13.53 39.35 13.35 39.25 13.31C38.58 13.07 37.96 12.71 37.32 12.4C38.6 12.58 39.89 12.76 41.17 12.94C41.27 12.95 41.3 12.8 41.2 12.78C39.5 12.48 37.8 12.17 36.1 11.89C35.3 11.76 34.49 11.67 33.69 11.51C34.36 11.26 35.02 10.99 35.68 10.74C35.78 10.7 35.72 10.55 35.63 10.59C34.85 10.86 34.06 11.13 33.28 11.42C32.63 11.27 32.01 11.05 31.42 10.71C31.14 10.44 30.85 10.17 30.56 9.9C32.14 10.05 33.7 10.01 35.25 9.8C35.78 9.89 36.29 9.99 36.8 10.18C36.88 10.21 36.93 10.1 36.86 10.07C36.54 9.93001 36.21 9.8 35.87 9.71C36.54 9.6 37.21 9.45 37.88 9.27C38.02 9.23 37.94 9.04001 37.81 9.07001C35.86 9.51001 33.88 9.69001 31.9 9.60001C32.05 9.53001 32.21 9.48001 32.33 9.41001C32.63 9.25001 32.9 9.05 33.16 8.84C33.24 8.77 33.16 8.63002 33.06 8.70002C32.72 8.96002 32.36 9.18999 31.97 9.35999C31.81 9.42999 31.63 9.47999 31.5 9.57999C31.02 9.54999 30.54 9.50001 30.06 9.44001C29.91 9.30001 29.76 9.17001 29.6 9.03001C29.6 9.03001 29.59 9.02002 29.58 9.01002C29.39 8.85002 29.2 8.69001 29.01 8.53001C30.17 8.60001 31.33 8.37001 32.41 7.94001C32.82 7.96001 33.22 7.96002 33.63 8.04002C33.74 8.06002 33.77 7.9 33.66 7.87C33.41 7.81 33.14 7.76 32.87 7.74C33.31 7.54 33.73 7.31 34.13 7.05C34.25 6.97 34.13 6.8 34 6.87C32.69 7.59 31.39 7.92999 29.99 8.07999C30.26 7.69999 30.5 7.27999 30.7 6.85999C30.75 6.73999 30.58 6.66 30.52 6.77C30.29 7.24 30.01 7.67001 29.72 8.10001C29.34 8.13001 28.96 8.16002 28.57 8.17002C28.08 7.77002 27.58 7.38002 27.08 7.01002C26.9 6.88002 26.67 7.14001 26.85 7.28001L26.93 7.3Z" fill="url(#paint2_radial_2_15)"/>
<g opacity="0.26">
<path d="M29.13 8.82999C31.26 11.08 33.55 13.1 35.55 15.5C35.59 15.55 35.66 15.48 35.62 15.43C33.75 13.07 31.57 10.61 29.13 8.82999Z" fill="white"/>
</g>
<g opacity="0.26">
<path d="M37.49 12.26C35.62 12.02 33.82 11.57 32.01 11.05C31.96 11.03 31.94 11.11 31.99 11.13C33.76 11.76 35.63 12.13 37.49 12.35C37.55 12.35 37.55 12.27 37.49 12.26Z" fill="white"/>
</g>
<g opacity="0.26">
<path d="M40.4 16.92C38.65 16.34 37.01 15.58 35.36 14.76C35.29 14.73 35.24 14.82 35.3 14.86C36.89 15.78 38.62 16.47 40.36 17.04C40.44 17.07 40.47 16.94 40.39 16.92H40.4Z" fill="white"/>
</g>
<g opacity="0.26">
<path d="M40.53 19.18C39.34 18.41 38.12 17.64 36.86 16.99C36.8 16.96 36.75 17.04 36.81 17.08C38.02 17.83 39.27 18.53 40.49 19.26C40.54 19.29 40.58 19.22 40.53 19.19V19.18Z" fill="white"/>
</g>
<g opacity="0.26">
<path d="M31.59 11.12C32.16 11.76 32.7 12.45 33.29 13.07C33.32 13.1 33.38 13.06 33.36 13.02C32.86 12.32 32.25 11.68 31.67 11.05C31.63 11 31.56 11.07 31.6 11.12H31.59Z" fill="white"/>
</g>
<g opacity="0.26">
<path d="M33.77 9.72C32.73 9.79 31.73 9.69999 30.7 9.51999C30.63 9.50999 30.59 9.62001 30.67 9.64001C31.69 9.85001 32.73 9.89 33.77 9.81C33.82 9.81 33.83 9.72 33.77 9.72Z" fill="white"/>
</g>
<g opacity="0.26">
<path d="M32.38 9.75C31.89 9.72 31.4 9.65 30.9 9.62C30.84 9.62 30.83 9.71 30.89 9.72C31.38 9.82 31.89 9.83999 32.38 9.85999C32.45 9.85999 32.45 9.75 32.38 9.75Z" fill="white"/>
</g>
<g opacity="0.26">
<path d="M30.93 9.70002C30.84 9.70002 30.76 9.67001 30.68 9.63001C30.63 9.61001 30.57 9.67 30.62 9.71C30.71 9.78 30.82 9.81 30.93 9.81C31 9.81 31 9.70002 30.93 9.70002Z" fill="white"/>
</g>
<g opacity="0.26">
<path d="M29.85 9.42002C30 9.55002 30.15 9.67 30.31 9.8C30.36 9.84 30.43 9.77002 30.38 9.73002C30.23 9.60002 30.08 9.48002 29.92 9.35002C29.87 9.31002 29.8 9.38002 29.85 9.42002Z" fill="white"/>
</g>
<g opacity="0.26">
<path d="M37.56 18.59C39.46 21.32 41.01 24.2 42.31 27.26C42.33 27.31 42.43 27.28 42.41 27.22C41.18 24.14 39.56 21.25 37.64 18.55C37.61 18.51 37.54 18.55 37.57 18.59H37.56Z" fill="white"/>
</g>
<g opacity="0.26">
<path d="M37.71 18.69C39.04 20.84 40.21 23.06 41.36 25.3C41.39 25.37 41.49 25.3 41.46 25.24C40.44 22.94 39.17 20.74 37.81 18.63C37.77 18.57 37.68 18.63 37.72 18.68L37.71 18.69Z" fill="white"/>
</g>
<g opacity="0.26">
<path d="M39.5 21.59C39.75 22.11 39.98 22.64 40.25 23.15C40.28 23.22 40.38 23.15 40.35 23.09C40.12 22.56 39.85 22.05 39.6 21.53C39.57 21.46 39.46 21.53 39.5 21.59Z" fill="white"/>
</g>
<path d="M39.94 21.62C41.17 22.76 42.43 23.87 43.71 24.96Z" fill="url(#paint3_radial_2_15)"/>
<g opacity="0.26">
<path d="M40.74 22.36C41.14 22.73 41.54 23.11 41.95 23.47C42 23.51 42.07 23.44 42.02 23.4C41.62 23.02 41.2 22.66 40.79 22.3C40.75 22.26 40.69 22.32 40.73 22.36H40.74Z" fill="white"/>
</g>
<g opacity="0.26">
<path d="M36.22 17.02C36.58 19.33 36.7 21.61 36.64 23.94C36.64 24 36.73 24 36.74 23.94C36.89 21.62 36.72 19.28 36.31 16.99C36.3 16.93 36.21 16.96 36.22 17.01V17.02Z" fill="white"/>
</g>
<g opacity="0.26">
<path d="M36.63 19.28C36.7 20.45 36.67 21.61 36.63 22.78C36.63 22.83 36.7 22.83 36.71 22.78C36.84 21.62 36.81 20.44 36.71 19.28C36.71 19.24 36.64 19.24 36.65 19.28H36.63Z" fill="white"/>
</g>
<g opacity="0.26">
<path d="M33.94 13.86C34.69 16.11 34.93 18.35 34.8 20.71C34.8 20.76 34.87 20.76 34.88 20.71C35.15 18.38 34.83 16.04 34.03 13.84C34.01 13.79 33.93 13.81 33.95 13.86H33.94Z" fill="white"/>
</g>
<g opacity="0.26">
<path d="M34.72 16.63C34.71 17.63 34.68 18.63 34.73 19.63C34.73 19.66 34.78 19.66 34.78 19.63C34.83 18.63 34.81 17.63 34.79 16.63C34.79 16.58 34.71 16.58 34.71 16.63H34.72Z" fill="white"/>
</g>
<g opacity="0.26">
<path d="M32.54 13.72C32.44 15.54 32.29 17.35 32.12 19.16C32.12 19.2 32.19 19.22 32.2 19.17C32.44 17.36 32.57 15.54 32.62 13.71C32.62 13.66 32.55 13.66 32.55 13.71L32.54 13.72Z" fill="white"/>
</g>
<g opacity="0.26">
<path d="M32.34 15.59C32.33 16.6 32.17 17.57 31.96 18.56C31.95 18.62 32.03 18.64 32.05 18.58C32.34 17.61 32.45 16.6 32.46 15.59C32.46 15.51 32.34 15.51 32.34 15.59Z" fill="white"/>
</g>
<g opacity="0.26">
<path d="M32.15 16.89C32.1 16.97 32.09 17.06 32.07 17.16C32.05 17.26 32.02 17.35 32.03 17.44C32.03 17.48 32.09 17.5 32.1 17.46C32.14 17.38 32.16 17.28 32.18 17.19C32.2 17.1 32.23 17.01 32.22 16.91C32.22 16.88 32.18 16.86 32.16 16.89H32.15Z" fill="white"/>
</g>
<g opacity="0.26">
<path d="M29.55 9.48002C30.66 10.97 30.55 13.61 30.5 15.37C30.5 15.43 30.59 15.43 30.6 15.37C30.7 14.26 30.64 13.13 30.46 12.03C30.32 11.17 30.19 10.11 29.63 9.42003C29.59 9.37003 29.51 9.44002 29.55 9.48002Z" fill="white"/>
</g>
<g opacity="0.26">
<path d="M30.07 10.71C30.41 11.98 30.55 13.24 30.55 14.55C30.55 14.62 30.65 14.61 30.65 14.55C30.71 13.24 30.52 11.94 30.16 10.68C30.14 10.63 30.06 10.65 30.08 10.7L30.07 10.71Z" fill="white"/>
</g>
<g opacity="0.26">
<path d="M30.42 12.56C30.55 13.19 30.57 13.81 30.57 14.44C30.57 14.5 30.65 14.49 30.65 14.44C30.71 13.8 30.65 13.16 30.52 12.53C30.51 12.46 30.41 12.49 30.42 12.56Z" fill="white"/>
</g>
<g opacity="0.26">
<path d="M28.06 7.82C28.43 8.46 28.63 9.13999 28.74 9.86999C28.74 9.91999 28.83 9.90998 28.82 9.85998C28.78 9.10998 28.52 8.40998 28.14 7.76998C28.11 7.70998 28.02 7.77 28.05 7.82H28.06Z" fill="white"/>
</g>
<g opacity="0.76">
<path d="M31.62 11.23C32 11.56 32.33 11.93 32.68 12.29C32.7 12.31 32.75 12.29 32.73 12.25C32.44 11.84 32.06 11.49 31.69 11.16C31.64 11.12 31.58 11.19 31.62 11.23Z" fill="white"/>
</g>
<g opacity="0.26">
<path d="M33.13 7.52C31.93 7.91 30.71 8.12001 29.47 8.28001C29.39 8.29001 29.38 8.42001 29.47 8.41001C30.74 8.36001 31.97 8.05 33.16 7.61C33.22 7.59 33.19 7.50002 33.13 7.51002V7.52Z" fill="white"/>
</g>
<g opacity="0.76">
<path d="M32.82 7.60998C32.15 7.83998 31.47 8.01001 30.78 8.14001C30.73 8.14001 30.75 8.23 30.8 8.22C31.5 8.12 32.18 7.94 32.84 7.69C32.89 7.67 32.87 7.59998 32.82 7.60998Z" fill="white"/>
</g>
<g opacity="0.76">
<path d="M33.5 9.76999C33.12 9.73999 32.74 9.69 32.36 9.69C32.34 9.69 32.33 9.72001 32.36 9.73001C32.74 9.79001 33.12 9.81 33.5 9.84C33.54 9.84 33.54 9.77999 33.5 9.76999Z" fill="white"/>
</g>
<g opacity="0.76">
<path d="M31.92 9.70001C31.72 9.68001 31.52 9.66001 31.31 9.64001C31.25 9.64001 31.26 9.72001 31.31 9.73001C31.51 9.75001 31.71 9.77001 31.92 9.79001C31.98 9.79001 31.97 9.71001 31.92 9.70001Z" fill="white"/>
</g>
<g opacity="0.76">
<path d="M34.87 14.45C35.1 14.65 35.34 14.85 35.59 15.02C35.6 15.02 35.62 15.02 35.6 15C35.37 14.79 35.12 14.62 34.86 14.45H34.87Z" fill="white"/>
</g>
<g opacity="0.76">
<path d="M39.17 16.55C38.35 16.34 37.57 15.96 36.82 15.57C36.82 15.57 36.8 15.57 36.82 15.58C37.58 16 38.31 16.4 39.17 16.58C39.19 16.58 39.2 16.55 39.17 16.55Z" fill="white"/>
</g>
<g opacity="0.76">
<path d="M39.5 18.57C38.74 18.14 37.98 17.7 37.24 17.24C37.23 17.24 37.21 17.25 37.23 17.26C37.95 17.75 38.7 18.21 39.47 18.62C39.5 18.64 39.53 18.59 39.5 18.57Z" fill="white"/>
</g>
<g opacity="0.76">
<path d="M36.39 17.65C36.58 18.88 36.65 20.13 36.72 21.37C36.72 21.39 36.76 21.39 36.76 21.37C36.78 20.11 36.62 18.88 36.4 17.65C36.4 17.65 36.38 17.65 36.39 17.65Z" fill="white"/>
</g>
<g opacity="0.76">
<path d="M37.47 18.27C38.12 19.38 38.77 20.48 39.43 21.58C39.45 21.61 39.5 21.58 39.48 21.55C38.83 20.44 38.18 19.34 37.52 18.24C37.5 18.21 37.45 18.24 37.47 18.27Z" fill="white"/>
</g>
<g opacity="0.76">
<path d="M39.86 22.25C39.95 22.49 40.06 22.72 40.21 22.92C40.24 22.96 40.3 22.92 40.27 22.88C40.13 22.67 40.01 22.46 39.92 22.22C39.9 22.18 39.83 22.2 39.85 22.24L39.86 22.25Z" fill="white"/>
</g>
<path d="M29.17 10.03C29.64 9.86999 30.12 9.70998 30.59 9.55998C31.11 9.56998 31.63 9.72999 32.13 9.96999C32.28 10.16 32.43 10.34 32.56 10.55C32.76 10.89 32.91 11.24 33.05 11.6C33.08 11.68 33.21 11.64 33.18 11.56C33.02 11.14 32.86 10.62 32.59 10.2C33.67 10.83 34.69 11.78 35.6 12.4C35.69 12.46 35.8 12.31 35.71 12.24C35.39 11.99 35.07 11.74 34.75 11.48C35.12 11.59 35.52 11.64 35.9 11.69C36.01 11.7 36.05 11.53 35.94 11.52C35.46 11.45 35 11.31 34.52 11.26C34.5 11.26 34.49 11.26 34.47 11.27C33.84 10.78 33.2 10.29 32.55 9.83998C32.17 9.57998 31.79 9.39999 31.39 9.31999C31.67 9.23999 31.95 9.14999 32.22 9.06999C32.8 9.16999 33.35 9.31999 33.89 9.49999C34.09 9.66999 34.31 9.81998 34.51 9.98998C34.78 10.22 35.03 10.46 35.31 10.68C35.37 10.73 35.45 10.64 35.39 10.59C35.09 10.34 34.79 9.98 34.45 9.7C36.35 10.43 38.04 11.59 39.67 12.89C39.79 12.99 39.96 12.81 39.84 12.71C38.85 11.83 37.8 11.03 36.69 10.36C37.19 10.43 37.72 10.45 38.2 10.48C38.32 10.48 38.31 10.3 38.2 10.3C37.49 10.25 36.79 10.08 36.09 10.02C35.15 9.50998 34.16 9.10997 33.1 8.85997C34.24 8.55997 35.38 8.29997 36.52 8.07997C37.71 8.83997 38.78 9.76998 39.86 10.68C40.35 11.38 40.82 12.12 41.38 12.75C41.44 12.81 41.54 12.73 41.5 12.66C41.21 12.16 40.85 11.68 40.49 11.21C41.29 11.87 42.11 12.5 43.01 13.02C43.14 13.09 43.29 12.9 43.16 12.8C41.47 11.54 39.87 10.1 38.16 8.85997C38.71 8.90997 39.27 8.95999 39.82 8.99999C39.92 8.99999 39.94 8.82999 39.84 8.81999C39.14 8.72999 38.45 8.63999 37.75 8.56999C37.47 8.36999 37.18 8.18999 36.89 7.99999C37.1 7.95999 37.3 7.93 37.51 7.89C37.54 7.91 37.81 7.85997 37.92 7.82997C38.92 7.85997 39.86 8.09 40.75 8.45C40.87 8.62 41 8.78 41.13 8.95C41.35 9.25 41.5 9.59 41.61 9.95C41.64 10.05 41.8 10.01 41.77 9.89998C41.68 9.56998 41.55 9.26 41.35 8.98C41.25 8.83 41.13 8.69998 41.01 8.55998C42.91 9.38998 44.59 10.8 46.23 12.16C46.32 12.24 46.45 12.11 46.36 12.02C46.08 11.76 45.8 11.49 45.51 11.24C45.65 11.29 45.79 11.34 45.92 11.39C46.03 11.44 46.12 11.28 46.01 11.22C45.71 11.08 45.4 10.94 45.08 10.85C43.3 9.30999 41.33 7.99 39.05 7.64C39.83 7.53 40.62 7.44999 41.4 7.37999C42.1 7.52999 42.75 7.74 43.37 8.01C43.74 8.58 44.09 9.21 44.54 9.73C44.61 9.8 44.7 9.69999 44.67 9.62999C44.42 9.11999 44.07 8.64998 43.73 8.17998C45.55 9.02998 47.16 10.28 48.9 11.37C48.99 11.43 49.1 11.28 49.01 11.21C48.49 10.78 47.94 10.33 47.37 9.90999C47.87 9.99999 48.38 10.05 48.88 10.17C48.99 10.2 49.03 10.03 48.92 9.99999C48.32 9.83999 47.68 9.64998 47.06 9.64998C47.05 9.64998 47.04 9.64999 47.03 9.65999C45.56 8.59999 43.93 7.67998 42.21 7.30998C42.86 7.25998 43.52 7.23999 44.17 7.21999C44.84 7.32999 45.49 7.48 46.12 7.67C46.63 8.08 47.1 8.56 47.63 8.92C47.69 8.96 47.78 8.86998 47.73 8.80998C47.47 8.44998 47.1 8.13997 46.72 7.85997C48.36 8.41997 49.9 9.17999 51.5 9.96999C51.65 10.04 51.77 9.80998 51.62 9.73998C51.21 9.52998 50.79 9.30997 50.37 9.07997C50.78 9.09997 51.19 9.10998 51.6 9.11998C51.7 9.11998 51.69 8.96999 51.6 8.96999C51.07 8.95999 50.54 8.91 50.01 8.89C48.74 8.22 47.41 7.56998 46.03 7.20998C49.03 7.24998 52.06 7.56998 55.1 8.20998C55.25 8.23998 55.3 8.02 55.15 7.98C53.01 7.5 50.84 7.16998 48.66 6.98998C50.28 6.44998 51.88 5.87997 53.49 5.32997C53.6 5.28997 53.55 5.10998 53.44 5.14998C51.6 5.71998 49.76 6.25997 47.93 6.85997C47.88 6.87997 47.85 6.89999 47.84 6.93999C46.37 6.84999 44.9 6.81997 43.43 6.85997C44.35 6.45997 45.19 5.87998 46.08 5.39998C46.5 5.16998 46.92 4.95999 47.34 4.74999C48.33 4.53999 49.32 4.33998 50.32 4.20998C50.44 4.19998 50.43 4.00998 50.32 4.01998C49.63 4.09998 48.93 4.18997 48.24 4.32997C49.28 3.85997 50.34 3.42997 51.42 3.04997C51.55 2.99997 51.49 2.79999 51.36 2.84999C49.9 3.32999 48.47 3.88 47.08 4.54C46.51 4.81 45.96 5.11998 45.41 5.42998C45.74 4.96998 45.98 4.42998 46.19 3.92998C46.23 3.83998 46.1 3.76997 46.06 3.85997C45.76 4.51997 45.34 5.07999 44.95 5.68999C44.12 6.14999 43.28 6.58998 42.38 6.89998C42.38 6.89998 42.38 6.89999 42.37 6.90999C41.68 6.94999 41 6.99998 40.32 7.05998C41.71 6.44998 42.96 5.58997 44.07 4.54997C44.9 4.06997 45.69 3.47 46.47 2.92C46.55 2.86 46.47 2.74 46.39 2.79C45.86 3.15 45.31 3.49997 44.77 3.85997C45.39 3.18997 45.95 2.45998 46.44 1.67998C46.5 1.57998 46.35 1.49999 46.28 1.59999C45.17 3.20999 43.85 4.46999 42.35 5.46999C42.81 4.83999 43.13 4.09999 43.3 3.34999C43.33 3.23999 43.16 3.19998 43.13 3.30998C42.87 4.32998 42.36 5.10998 41.69 5.86998C40.76 6.41998 39.77 6.87999 38.71 7.24999C37.69 7.38999 36.67 7.56999 35.66 7.77999C35.79 7.68999 35.91 7.59 36.03 7.48C36.12 7.4 36.16 7.34999 36.31 7.21999C36.76 6.77999 37.17 6.28997 37.6 5.79997C37.91 5.44997 38.22 5.08998 38.52 4.73998C39.4 4.19998 40.31 3.64999 41.11 2.99999C41.19 2.92999 41.07 2.77999 40.99 2.84999C40.43 3.27999 39.79 3.60998 39.18 3.98998C40.03 3.00998 40.87 2.02 41.71 1.04C41.78 0.959995 41.66 0.849979 41.59 0.929979C40.42 2.19998 39.24 3.45998 38.08 4.73998C37.54 5.33998 37.02 5.97998 36.46 6.55998C36.61 5.85998 36.75 5.15998 36.89 4.45998C36.91 4.35998 36.76 4.32 36.73 4.42C36.54 5.23 36.34 6.02999 36.16 6.84999C35.68 7.30999 35.16 7.71999 34.56 8.02999C34.18 8.11999 33.8 8.20998 33.42 8.30998C34.4 7.05998 35.21 5.72998 35.87 4.30998C36.23 3.91998 36.59 3.53998 37.03 3.20998C37.09 3.15998 37.03 3.05999 36.96 3.09999C36.67 3.28999 36.39 3.49998 36.12 3.73998C36.39 3.10998 36.63 2.46998 36.83 1.80998C36.87 1.67998 36.67 1.64 36.62 1.76C35.94 3.64 35.02 5.39998 33.88 7.01998C33.9 6.85998 33.94 6.69997 33.95 6.54997C33.98 6.20997 33.95 5.88 33.91 5.54C33.9 5.43 33.73 5.43 33.74 5.54C33.78 5.97 33.77 6.38999 33.71 6.81999C33.68 6.98999 33.63 7.16998 33.64 7.33998C33.36 7.72998 33.06 8.11 32.75 8.48C32.55 8.54 32.35 8.58998 32.16 8.64998H32.14C31.9 8.71998 31.67 8.79998 31.43 8.86998C32.11 7.92998 32.55 6.82999 32.77 5.68999C33.01 5.35999 33.22 5.01999 33.52 4.71999C33.6 4.63999 33.47 4.52999 33.4 4.59999C33.22 4.77999 33.03 4.97999 32.87 5.18999C32.94 4.70999 32.97 4.23 32.97 3.76C32.97 3.62 32.76 3.63 32.75 3.76C32.65 5.25 32.23 6.53 31.6 7.79C31.42 7.35 31.21 6.93 30.96 6.54C30.89 6.43 30.72 6.54 30.79 6.64C31.06 7.09 31.27 7.54999 31.47 8.02999C31.29 8.35999 31.11 8.69999 30.9 9.02999C30.3 9.22999 29.71 9.43999 29.12 9.65999C28.91 9.73999 29 10.08 29.22 9.99999L29.17 10.03Z" fill="url(#paint4_radial_2_15)"/>
<g opacity="0.26">
<path d="M31.65 9C34.69 8.36 37.62 7.58001 40.72 7.20001C40.79 7.20001 40.79 7.09001 40.72 7.10001C37.69 7.42001 34.53 7.95 31.65 9Z" fill="white"/>
</g>
<g opacity="0.26">
<path d="M39.05 3.81001C37.83 5.26001 36.47 6.52001 35.06 7.78001C35.02 7.81001 35.07 7.88002 35.11 7.85002C36.61 6.73002 37.93 5.32002 39.11 3.88002C39.15 3.84002 39.08 3.77002 39.05 3.82002V3.81001Z" fill="white"/>
</g>
<g opacity="0.26">
<path d="M44.54 3.89002C43.1 5.05002 41.58 6.00999 40 6.95999C39.94 6.99999 40 7.09 40.06 7.06C41.7 6.23 43.21 5.14001 44.63 3.98001C44.69 3.93001 44.6 3.84002 44.54 3.89002Z" fill="white"/>
</g>
<g opacity="0.26">
<path d="M46.51 5C45.22 5.59 43.91 6.2 42.68 6.91C42.62 6.94 42.68 7.03 42.73 7C44.02 6.39 45.28 5.70999 46.55 5.07999C46.6 5.05999 46.55 4.98001 46.51 5.01001V5Z" fill="white"/>
</g>
<g opacity="0.26">
<path d="M34.9 8.17003C35.75 8.03003 36.61 7.95 37.46 7.8C37.51 7.8 37.5 7.71001 37.45 7.72001C36.59 7.77001 35.72 7.93 34.87 8.08C34.81 8.09 34.83 8.19001 34.9 8.18001V8.17003Z" fill="white"/>
</g>
<g opacity="0.26">
<path d="M34.9 5.57998C34.4 6.48998 33.78 7.28999 33.08 8.05999C33.03 8.11999 33.11 8.20001 33.16 8.14001C33.89 7.41001 34.49 6.52999 34.97 5.61999C35 5.56999 34.92 5.52998 34.9 5.57998Z" fill="white"/>
</g>
<g opacity="0.26">
<path d="M34.18 6.76998C33.89 7.16998 33.57 7.54999 33.27 7.93999C33.23 7.98999 33.31 8.04999 33.35 7.99999C33.7 7.64999 33.99 7.23 34.27 6.82C34.31 6.76 34.21 6.71 34.17 6.76L34.18 6.76998Z" fill="white"/>
</g>
<g opacity="0.26">
<path d="M33.35 7.96C33.3 8.04 33.23 8.09003 33.16 8.14003C33.11 8.17003 33.14 8.25002 33.2 8.23002C33.31 8.20002 33.39 8.11 33.45 8.02C33.49 7.96 33.39 7.9 33.35 7.96Z" fill="white"/>
</g>
<g opacity="0.26">
<path d="M32.53 8.72001C32.72 8.66001 32.91 8.60002 33.09 8.54002C33.15 8.52002 33.13 8.43001 33.06 8.44001C32.87 8.50001 32.68 8.56 32.5 8.62C32.44 8.64 32.47 8.73001 32.53 8.72001Z" fill="white"/>
</g>
<g opacity="0.26">
<path d="M44.42 7.17999C47.74 7.05999 50.99 7.30998 54.26 7.85998C54.33 7.86998 54.36 7.77001 54.29 7.76001C51.03 7.14001 47.73 6.94 44.42 7.09C44.37 7.09 44.37 7.18001 44.42 7.17001V7.17999Z" fill="white"/>
</g>
<g opacity="0.26">
<path d="M44.58 7.11C47.11 7.16 49.6 7.37001 52.12 7.62001C52.18 7.62001 52.2 7.52002 52.14 7.51002C49.65 7.13002 47.11 7.00002 44.59 7.01002C44.52 7.01002 44.52 7.11001 44.59 7.12001L44.58 7.11Z" fill="white"/>
</g>
<g opacity="0.26">
<path d="M47.99 7.17999C48.56 7.24999 49.13 7.34001 49.71 7.39001C49.77 7.39001 49.79 7.29 49.73 7.28C49.15 7.19 48.57 7.13 48 7.06C47.92 7.06 47.92 7.16999 48 7.17999H47.99Z" fill="white"/>
</g>
<path d="M48.25 6.82001C49.87 6.40001 51.49 5.94001 53.1 5.45001Z" fill="url(#paint5_radial_2_15)"/>
<g opacity="0.26">
<path d="M49.3 6.54999C49.83 6.40999 50.37 6.29001 50.89 6.13001C50.95 6.11001 50.93 6.01 50.86 6.03C50.33 6.16 49.8 6.32001 49.27 6.47001C49.22 6.48001 49.24 6.56999 49.29 6.54999H49.3Z" fill="white"/>
</g>
<g opacity="0.26">
<path d="M42.36 7.46C44.5 8.4 46.49 9.53002 48.43 10.85C48.48 10.89 48.53 10.8 48.48 10.77C46.61 9.39 44.55 8.26001 42.4 7.38001C42.35 7.36001 42.32 7.44 42.36 7.46Z" fill="white"/>
</g>
<g opacity="0.26">
<path d="M44.49 8.33999C45.52 8.91999 46.47 9.56999 47.44 10.24C47.48 10.26 47.52 10.21 47.49 10.18C46.59 9.43999 45.56 8.82001 44.53 8.29001C44.49 8.27001 44.46 8.33 44.5 8.35L44.49 8.33999Z" fill="white"/>
</g>
<g opacity="0.26">
<path d="M38.48 7.68C40.78 8.26 42.79 9.27001 44.71 10.66C44.74 10.69 44.79 10.63 44.76 10.6C42.96 9.10001 40.79 8.11001 38.51 7.60001C38.46 7.59001 38.43 7.67 38.49 7.68H38.48Z" fill="white"/>
</g>
<g opacity="0.26">
<path d="M41.23 8.51C42.06 9.06 42.89 9.62999 43.76 10.12C43.79 10.14 43.81 10.09 43.79 10.07C42.98 9.48 42.12 8.97 41.28 8.44C41.24 8.41 41.2 8.48 41.24 8.51H41.23Z" fill="white"/>
</g>
<g opacity="0.26">
<path d="M37.61 8.78001C39.09 9.84001 40.52 10.95 41.96 12.07C42 12.1 42.06 12.05 42.02 12.01C40.64 10.83 39.16 9.73 37.65 8.71C37.61 8.68 37.58 8.75 37.61 8.77V8.78001Z" fill="white"/>
</g>
<g opacity="0.26">
<path d="M39.07 9.95998C39.92 10.51 40.65 11.17 41.36 11.88C41.4 11.92 41.46 11.86 41.43 11.81C40.78 11.04 39.98 10.4 39.13 9.85C39.07 9.81 39.01 9.91 39.07 9.95V9.95998Z" fill="white"/>
</g>
<g opacity="0.26">
<path d="M40.07 10.82C40.07 10.82 40.08 10.86 40.09 10.87C40.1 10.89 40.12 10.9 40.13 10.92C40.16 10.96 40.2 10.99 40.24 11.03C40.31 11.1 40.37 11.17 40.45 11.22C40.49 11.24 40.52 11.2 40.5 11.17C40.45 11.09 40.38 11.02 40.31 10.96C40.28 10.93 40.25 10.9 40.21 10.86C40.19 10.84 40.17 10.82 40.15 10.81C40.13 10.8 40.11 10.79 40.09 10.78C40.06 10.75 40.02 10.79 40.04 10.83L40.07 10.82Z" fill="white"/>
</g>
<g opacity="0.26">
<path d="M32.42 9.01002C33.45 8.94002 34.68 9.57001 35.57 10C36.39 10.4 37.14 10.88 37.89 11.39C37.94 11.42 37.99 11.35 37.95 11.31C37.09 10.64 36.14 10.09 35.15 9.65C34.33 9.29 33.33 8.79 32.42 8.9C32.35 8.9 32.35 9.01002 32.42 9.01002Z" fill="white"/>
</g>
<g opacity="0.26">
<path d="M33.74 9.23C34.99 9.63 36.13 10.19 37.23 10.9C37.29 10.94 37.33 10.85 37.28 10.81C36.21 10.05 35.01 9.51001 33.76 9.14001C33.71 9.12001 33.68 9.20999 33.74 9.21999V9.23Z" fill="white"/>
</g>
<g opacity="0.26">
<path d="M35.49 9.94001C36.09 10.17 36.62 10.48 37.15 10.83C37.19 10.86 37.24 10.79 37.2 10.76C36.69 10.36 36.11 10.06 35.51 9.82999C35.45 9.80999 35.42 9.91 35.48 9.93L35.49 9.94001Z" fill="white"/>
</g>
<g opacity="0.26">
<path d="M30.22 9.35999C30.96 9.38999 31.63 9.59001 32.3 9.89001C32.35 9.91001 32.39 9.84001 32.34 9.82001C31.69 9.45001 30.96 9.29001 30.21 9.26001C30.14 9.26001 30.15 9.35999 30.21 9.35999H30.22Z" fill="white"/>
</g>
<g opacity="0.76">
<path d="M35.01 8.20999C35.49 8.06999 35.98 7.99001 36.47 7.89001C36.5 7.89001 36.5 7.82999 36.47 7.82999C35.97 7.85999 35.47 7.98 34.99 8.12C34.93 8.14 34.96 8.22999 35.02 8.20999H35.01Z" fill="white"/>
</g>
<g opacity="0.26">
<path d="M32.7 4.92998C32.38 6.14998 31.89 7.28 31.36 8.42C31.32 8.5 31.43 8.55998 31.47 8.48998C32.11 7.39998 32.52 6.18998 32.79 4.95998C32.8 4.89998 32.71 4.86998 32.69 4.92998H32.7Z" fill="white"/>
</g>
<g opacity="0.76">
<path d="M32.61 5.25C32.44 5.94 32.22 6.60001 31.96 7.25001C31.94 7.29001 32.02 7.32 32.03 7.28C32.33 6.64 32.54 5.95999 32.69 5.26999C32.7 5.21999 32.63 5.2 32.61 5.25Z" fill="white"/>
</g>
<g opacity="0.76">
<path d="M34.81 5.82999C34.58 6.12999 34.33 6.43 34.13 6.75C34.12 6.77 34.14 6.78999 34.16 6.76999C34.42 6.48999 34.64 6.17 34.87 5.87C34.89 5.84 34.84 5.79999 34.82 5.82999H34.81Z" fill="white"/>
</g>
<g opacity="0.76">
<path d="M33.89 7.13C33.76 7.29 33.63 7.44999 33.51 7.61999C33.48 7.65999 33.55 7.71001 33.58 7.67001C33.71 7.51001 33.84 7.34999 33.96 7.17999C33.99 7.13999 33.92 7.09 33.89 7.13Z" fill="white"/>
</g>
<g opacity="0.76">
<path d="M39.47 7.20999C39.76 7.11999 40.06 7.03 40.34 6.91C40.35 6.91 40.34 6.88001 40.34 6.89001C40.04 6.97001 39.76 7.08999 39.48 7.20999H39.47Z" fill="white"/>
</g>
<g opacity="0.76">
<path d="M43.57 4.73C42.96 5.31 42.21 5.75998 41.48 6.17998C41.48 6.17998 41.48 6.19999 41.48 6.18999C42.24 5.77999 42.98 5.37998 43.59 4.74998C43.6 4.73998 43.59 4.71 43.57 4.73Z" fill="white"/>
</g>
<g opacity="0.76">
<path d="M45.44 5.54C44.67 5.95 43.89 6.35 43.1 6.72C43.09 6.72 43.1 6.74999 43.11 6.73999C43.92 6.38999 44.7 6.01999 45.47 5.58999C45.5 5.56999 45.47 5.52 45.44 5.54Z" fill="white"/>
</g>
<g opacity="0.76">
<path d="M42.99 7.66C44.13 8.17 45.22 8.78001 46.3 9.39001C46.32 9.40001 46.34 9.36999 46.32 9.35999C45.28 8.65999 44.15 8.12999 42.99 7.64999C42.99 7.64999 42.98 7.65 42.99 7.66Z" fill="white"/>
</g>
<g opacity="0.76">
<path d="M44.1 7.09C45.38 7.15 46.66 7.19001 47.95 7.23001C47.99 7.23001 47.99 7.18001 47.95 7.17001C46.67 7.12001 45.39 7.07 44.1 7.03C44.06 7.03 44.06 7.08 44.1 7.09Z" fill="white"/>
</g>
<g opacity="0.76">
<path d="M48.74 7.23001C48.99 7.29001 49.24 7.30999 49.5 7.29999C49.55 7.29999 49.55 7.23001 49.5 7.23001C49.25 7.23001 49.01 7.22001 48.76 7.17001C48.71 7.17001 48.69 7.22999 48.74 7.23999V7.23001Z" fill="white"/>
</g>
<path d="M28.46 10.89C27.99 10.73 27.51 10.57 27.04 10.42C26.52 10.43 26 10.59 25.5 10.83C25.35 11.02 25.2 11.2 25.07 11.41C24.87 11.75 24.72 12.1 24.58 12.46C24.55 12.54 24.42 12.5 24.45 12.42C24.61 12 24.77 11.48 25.04 11.06C23.96 11.69 22.94 12.64 22.03 13.26C21.94 13.32 21.83 13.17 21.92 13.1C22.24 12.85 22.56 12.6 22.88 12.34C22.51 12.45 22.11 12.5 21.73 12.55C21.62 12.56 21.58 12.39 21.69 12.38C22.17 12.31 22.63 12.17 23.11 12.12C23.13 12.12 23.14 12.12 23.16 12.13C23.79 11.64 24.43 11.15 25.08 10.7C25.46 10.44 25.84 10.26 26.24 10.18C25.96 10.1 25.68 10.01 25.41 9.92998C24.83 10.03 24.28 10.18 23.74 10.36C23.54 10.53 23.32 10.68 23.12 10.85C22.85 11.08 22.6 11.32 22.32 11.54C22.26 11.59 22.18 11.5 22.24 11.45C22.54 11.2 22.84 10.84 23.18 10.56C21.28 11.29 19.59 12.45 17.96 13.75C17.84 13.85 17.67 13.67 17.79 13.57C18.78 12.69 19.83 11.89 20.94 11.22C20.44 11.29 19.91 11.31 19.43 11.34C19.31 11.34 19.32 11.16 19.43 11.16C20.14 11.11 20.84 10.94 21.54 10.88C22.48 10.37 23.47 9.96999 24.53 9.71999C23.39 9.41999 22.25 9.15999 21.11 8.93999C19.92 9.69999 18.85 10.63 17.77 11.54C17.28 12.24 16.81 12.98 16.25 13.61C16.19 13.67 16.09 13.59 16.13 13.52C16.42 13.02 16.78 12.54 17.14 12.07C16.34 12.73 15.52 13.36 14.62 13.88C14.49 13.95 14.34 13.76 14.47 13.66C16.16 12.4 17.75 10.96 19.47 9.71999C18.92 9.76999 18.36 9.81998 17.81 9.85998C17.71 9.85998 17.69 9.68998 17.79 9.67998C18.49 9.58998 19.18 9.49998 19.88 9.42998C20.16 9.22998 20.45 9.04998 20.74 8.85998C20.53 8.81998 20.33 8.78999 20.12 8.74999C20.09 8.76999 19.82 8.71999 19.71 8.68999C18.71 8.71999 17.77 8.94999 16.88 9.30999C16.76 9.47999 16.63 9.63999 16.5 9.80999C16.28 10.11 16.13 10.45 16.02 10.81C15.99 10.91 15.83 10.87 15.86 10.76C15.95 10.43 16.08 10.12 16.28 9.83999C16.38 9.68999 16.5 9.56 16.62 9.42C14.72 10.25 13.04 11.66 11.4 13.02C11.31 13.1 11.18 12.97 11.27 12.88C11.55 12.62 11.83 12.35 12.12 12.1C11.98 12.15 11.84 12.2 11.71 12.25C11.6 12.3 11.51 12.14 11.62 12.08C11.92 11.94 12.23 11.8 12.55 11.71C14.33 10.17 16.3 8.84999 18.58 8.49999C17.8 8.38999 17.01 8.30998 16.23 8.23998C15.53 8.38998 14.88 8.59999 14.26 8.86999C13.89 9.43999 13.54 10.07 13.09 10.59C13.02 10.66 12.93 10.56 12.96 10.49C13.21 9.97998 13.56 9.51 13.9 9.04C12.08 9.89 10.47 11.14 8.73001 12.23C8.64001 12.29 8.52999 12.14 8.61999 12.07C9.13999 11.64 9.69001 11.19 10.26 10.77C9.76001 10.86 9.25 10.91 8.75 11.03C8.64 11.06 8.59999 10.89 8.70999 10.86C9.30999 10.7 9.95001 10.51 10.57 10.51C10.58 10.51 10.59 10.51 10.6 10.52C12.07 9.45998 13.7 8.54 15.42 8.17C14.77 8.12 14.11 8.09998 13.46 8.07998C12.79 8.18998 12.14 8.33999 11.51 8.52999C11 8.93999 10.53 9.41999 10 9.77999C9.94 9.81999 9.84999 9.73 9.89999 9.67C10.16 9.31 10.53 8.99999 10.91 8.71999C9.27 9.27999 7.73 10.04 6.13 10.83C5.98 10.9 5.86001 10.67 6.01001 10.6C6.42001 10.39 6.84001 10.17 7.26001 9.93999C6.85001 9.95999 6.44 9.97 6.03 9.98C5.93 9.98 5.94 9.82998 6.03 9.82998C6.56 9.81998 7.08999 9.76999 7.61999 9.74999C8.88999 9.07999 10.22 8.43 11.6 8.07C8.6 8.11 5.57 8.43 2.53 9.07C2.38 9.1 2.33001 8.87999 2.48001 8.83999C4.62001 8.35999 6.79 8.03 8.97 7.85C7.35 7.31 5.75001 6.73999 4.14001 6.18999C4.03001 6.14999 4.08 5.97 4.19 6.01C6.03 6.58 7.87001 7.11999 9.70001 7.71999C9.75001 7.73999 9.78001 7.75998 9.79001 7.79998C11.26 7.70998 12.73 7.67999 14.2 7.71999C13.28 7.31999 12.44 6.74 11.55 6.26C11.13 6.03 10.71 5.81998 10.29 5.60998C9.30001 5.39998 8.31 5.2 7.31 5.07C7.19 5.06 7.2 4.87 7.31 4.88C8 4.96 8.70001 5.04999 9.39001 5.18999C8.35001 4.71999 7.28999 4.29 6.20999 3.91C6.07999 3.86 6.13999 3.65998 6.26999 3.70998C7.72999 4.18998 9.15999 4.73999 10.55 5.39999C11.12 5.66999 11.67 5.98 12.22 6.29C11.89 5.83 11.65 5.29 11.44 4.79C11.4 4.7 11.53 4.62999 11.57 4.71999C11.87 5.37999 12.29 5.93998 12.68 6.54998C13.51 7.00998 14.35 7.45 15.25 7.76C15.25 7.76 15.25 7.75998 15.26 7.76998C15.95 7.80998 16.63 7.86 17.31 7.92C15.92 7.31 14.67 6.45 13.56 5.41C12.73 4.93 11.94 4.32999 11.16 3.77999C11.08 3.71999 11.16 3.59999 11.24 3.64999C11.77 4.00999 12.32 4.35999 12.86 4.71999C12.24 4.04999 11.68 3.32 11.19 2.54C11.13 2.44 11.28 2.35998 11.35 2.45998C12.46 4.06998 13.78 5.32998 15.28 6.32998C14.82 5.69998 14.5 4.95998 14.33 4.20998C14.3 4.09998 14.47 4.06 14.5 4.17C14.76 5.18 15.27 5.97 15.94 6.73C16.87 7.28 17.86 7.73998 18.92 8.10998C19.94 8.24998 20.96 8.43001 21.97 8.64001C21.84 8.55001 21.72 8.44999 21.6 8.33999C21.51 8.25999 21.47 8.20998 21.32 8.07998C20.87 7.63998 20.46 7.15 20.03 6.66C19.72 6.31 19.41 5.95 19.11 5.6C18.23 5.06 17.32 4.50998 16.52 3.85998C16.44 3.78998 16.56 3.63998 16.64 3.70998C17.2 4.13998 17.84 4.47 18.45 4.85C17.6 3.87 16.76 2.87999 15.92 1.89999C15.85 1.81999 15.97 1.71 16.04 1.79C17.21 3.06 18.39 4.32 19.55 5.6C20.09 6.2 20.61 6.84 21.17 7.42C21.02 6.72 20.88 6.02 20.74 5.32C20.72 5.22 20.87 5.17999 20.9 5.27999C21.09 6.08999 21.29 6.88998 21.47 7.70998C21.95 8.16998 22.47 8.58001 23.07 8.89001C23.45 8.98001 23.83 9.07 24.21 9.17C23.23 7.92 22.42 6.59 21.76 5.17C21.4 4.78 21.04 4.4 20.6 4.07C20.54 4.02 20.6 3.91998 20.67 3.95998C20.96 4.14998 21.24 4.36 21.51 4.6C21.24 3.97 21 3.33 20.8 2.67C20.76 2.54 20.96 2.49999 21.01 2.61999C21.69 4.49999 22.61 6.26 23.75 7.88C23.73 7.72 23.69 7.56 23.68 7.41C23.65 7.07 23.68 6.73999 23.72 6.39999C23.73 6.28999 23.9 6.28999 23.89 6.39999C23.85 6.82999 23.86 7.24998 23.92 7.67998C23.95 7.84998 24 8.03 23.99 8.2C24.27 8.59 24.57 8.96999 24.88 9.33999C25.08 9.39999 25.28 9.45 25.47 9.51H25.49C25.73 9.58 25.96 9.66 26.2 9.73C25.52 8.79 25.08 7.68998 24.86 6.54998C24.62 6.21998 24.41 5.87998 24.11 5.57998C24.03 5.49998 24.16 5.38998 24.23 5.45998C24.41 5.63998 24.6 5.83998 24.76 6.04998C24.69 5.56998 24.66 5.08999 24.66 4.61999C24.66 4.47999 24.87 4.48999 24.88 4.61999C24.98 6.10999 25.4 7.38999 26.03 8.64999C26.21 8.20999 26.42 7.78999 26.67 7.39999C26.74 7.28999 26.91 7.39999 26.84 7.49999C26.57 7.94999 26.36 8.41001 26.16 8.89001C26.34 9.22001 26.52 9.56001 26.73 9.89001C27.33 10.09 27.92 10.3 28.51 10.52C28.72 10.6 28.63 10.94 28.41 10.86L28.46 10.89Z" fill="url(#paint6_radial_2_15)"/>
<g opacity="0.26">
<path d="M25.98 9.85999C23.11 8.80999 19.95 8.27999 16.91 7.95999C16.84 7.95999 16.84 8.06 16.91 8.06C20 8.44 22.94 9.21999 25.98 9.85999Z" fill="white"/>
</g>
<g opacity="0.26">
<path d="M18.51 4.74C19.69 6.18 21.01 7.59 22.51 8.71C22.55 8.74 22.6 8.67002 22.56 8.64002C21.15 7.38002 19.79 6.13002 18.57 4.67002C18.53 4.63002 18.47 4.69002 18.51 4.73002V4.74Z" fill="white"/>
</g>
<g opacity="0.26">
<path d="M13 4.84C14.42 6 15.94 7.09002 17.57 7.92002C17.64 7.95002 17.69 7.86001 17.63 7.82001C16.05 6.87001 14.52 5.92 13.09 4.75C13.03 4.7 12.94 4.79 13 4.84Z" fill="white"/>
</g>
<g opacity="0.26">
<path d="M11.07 5.92998C12.34 6.56998 13.6 7.23999 14.89 7.84999C14.95 7.87999 15 7.78999 14.94 7.75999C13.71 7.04999 12.4 6.43999 11.11 5.84999C11.06 5.82999 11.02 5.9 11.07 5.92V5.92998Z" fill="white"/>
</g>
<g opacity="0.26">
<path d="M22.75 8.94C21.9 8.79 21.04 8.62999 20.17 8.57999C20.12 8.57999 20.11 8.65 20.16 8.66C21.01 8.81 21.87 8.9 22.72 9.03C22.78 9.03 22.81 8.93999 22.75 8.92999V8.94Z" fill="white"/>
</g>
<g opacity="0.26">
<path d="M22.65 6.48001C23.14 7.39001 23.73 8.26 24.46 9C24.51 9.05 24.6 8.97002 24.54 8.92002C23.84 8.15002 23.22 7.35001 22.72 6.44001C22.69 6.39001 22.62 6.44001 22.65 6.48001Z" fill="white"/>
</g>
<g opacity="0.26">
<path d="M23.35 7.68C23.63 8.09 23.92 8.51 24.27 8.86C24.31 8.9 24.39 8.85 24.35 8.8C24.06 8.4 23.73 8.03002 23.44 7.63002C23.4 7.57002 23.3 7.63001 23.34 7.69001L23.35 7.68Z" fill="white"/>
</g>
<g opacity="0.26">
<path d="M24.18 8.88002C24.24 8.98002 24.32 9.06001 24.43 9.09001C24.48 9.11001 24.52 9.03001 24.47 9.00001C24.39 8.95001 24.32 8.90002 24.28 8.82002C24.24 8.76002 24.15 8.82002 24.18 8.88002Z" fill="white"/>
</g>
<g opacity="0.26">
<path d="M25.12 9.48001C24.93 9.42001 24.75 9.35999 24.56 9.29999C24.5 9.27999 24.47 9.37 24.53 9.4C24.72 9.46 24.9 9.51999 25.09 9.57999C25.15 9.59999 25.18 9.50001 25.12 9.48001Z" fill="white"/>
</g>
<g opacity="0.26">
<path d="M13.21 7.96C9.89998 7.8 6.59998 8.01001 3.33998 8.63001C3.26998 8.64001 3.29998 8.74002 3.36998 8.73002C6.63998 8.17002 9.88998 7.93 13.21 8.05C13.26 8.05 13.26 7.97001 13.21 7.97001V7.96Z" fill="white"/>
</g>
<g opacity="0.26">
<path d="M13.05 7.85999C10.53 7.85999 7.99 7.97999 5.5 8.35999C5.44 8.35999 5.44999 8.48 5.51999 8.47C8.02999 8.22 10.53 8.00999 13.06 7.95999C13.13 7.95999 13.13 7.85001 13.06 7.85001L13.05 7.85999Z" fill="white"/>
</g>
<g opacity="0.26">
<path d="M9.64002 7.92001C9.06002 7.99001 8.48001 8.05001 7.91001 8.14001C7.85001 8.14001 7.86 8.26 7.93 8.25C8.5 8.2 9.08 8.11001 9.65 8.04001C9.72 8.04001 9.73 7.91001 9.65 7.92001H9.64002Z" fill="white"/>
</g>
<path d="M9.38 7.67999C7.76 7.25999 6.14 6.8 4.53 6.31Z" fill="url(#paint7_radial_2_15)"/>
<g opacity="0.26">
<path d="M8.34 7.32001C7.81 7.17001 7.29001 7.01001 6.75001 6.88001C6.68001 6.86001 6.66001 6.96002 6.72001 6.98002C7.25001 7.14002 7.78 7.26 8.31 7.4C8.36 7.41 8.38999 7.33001 8.32999 7.32001H8.34Z" fill="white"/>
</g>
<g opacity="0.26">
<path d="M15.23 8.24C13.08 9.12 11.02 10.25 9.14998 11.63C9.09998 11.67 9.15 11.75 9.2 11.71C11.13 10.4 13.12 9.26002 15.27 8.32002C15.32 8.30002 15.28 8.22 15.23 8.24Z" fill="white"/>
</g>
<g opacity="0.26">
<path d="M13.1 9.14001C12.07 9.68001 11.04 10.29 10.14 11.03C10.11 11.06 10.15 11.11 10.19 11.09C11.16 10.43 12.11 9.77 13.14 9.19C13.18 9.17 13.14 9.11 13.11 9.13L13.1 9.14001Z" fill="white"/>
</g>
<g opacity="0.26">
<path d="M19.12 8.45002C16.84 8.96002 14.67 9.96002 12.87 11.45C12.84 11.48 12.88 11.54 12.92 11.51C14.83 10.12 16.84 9.11001 19.15 8.53001C19.2 8.52001 19.18 8.44002 19.13 8.45002H19.12Z" fill="white"/>
</g>
<g opacity="0.26">
<path d="M16.35 9.29998C15.51 9.82998 14.64 10.34 13.84 10.93C13.81 10.95 13.84 10.99 13.87 10.98C14.74 10.49 15.57 9.91999 16.4 9.36999C16.44 9.33999 16.4 9.26998 16.36 9.29998H16.35Z" fill="white"/>
</g>
<g opacity="0.26">
<path d="M19.98 9.57001C18.47 10.59 17 11.68 15.61 12.87C15.57 12.9 15.63 12.96 15.67 12.93C17.1 11.81 18.54 10.7 20.02 9.64001C20.06 9.61001 20.02 9.54999 19.98 9.57999V9.57001Z" fill="white"/>
</g>
<g opacity="0.26">
<path d="M18.5 10.72C17.65 11.27 16.85 11.91 16.2 12.68C16.16 12.72 16.22 12.79 16.27 12.75C16.98 12.04 17.72 11.38 18.56 10.83C18.62 10.79 18.56 10.69 18.5 10.73V10.72Z" fill="white"/>
</g>
<g opacity="0.26">
<path d="M17.51 11.64C17.51 11.64 17.47 11.65 17.46 11.66C17.44 11.67 17.43 11.69 17.41 11.7C17.37 11.73 17.34 11.77 17.3 11.81C17.23 11.88 17.16 11.94 17.11 12.02C17.09 12.05 17.13 12.1 17.16 12.07C17.24 12.02 17.31 11.95 17.37 11.88C17.4 11.85 17.43 11.82 17.47 11.78C17.49 11.76 17.51 11.74 17.52 11.72C17.53 11.7 17.54 11.68 17.55 11.66C17.58 11.63 17.54 11.59 17.5 11.61L17.51 11.64Z" fill="white"/>
</g>
<g opacity="0.26">
<path d="M25.2 9.76001C24.3 9.66001 23.29 10.15 22.47 10.51C21.47 10.95 20.53 11.5 19.67 12.17C19.63 12.2 19.68 12.28 19.73 12.25C20.48 11.74 21.23 11.26 22.05 10.86C22.94 10.43 24.17 9.8 25.2 9.87C25.27 9.87 25.27 9.77001 25.2 9.76001Z" fill="white"/>
</g>
<g opacity="0.26">
<path d="M23.86 10C22.61 10.37 21.41 10.91 20.34 11.67C20.29 11.71 20.34 11.79 20.39 11.76C21.49 11.05 22.63 10.48 23.88 10.09C23.93 10.07 23.91 9.99001 23.86 10.01V10Z" fill="white"/>
</g>
<g opacity="0.26">
<path d="M22.11 10.7C21.51 10.93 20.93 11.23 20.42 11.63C20.38 11.66 20.43 11.72 20.47 11.7C21 11.35 21.54 11.04 22.13 10.81C22.19 10.79 22.16 10.69 22.1 10.71L22.11 10.7Z" fill="white"/>
</g>
<g opacity="0.26">
<path d="M27.4 10.12C26.66 10.15 25.93 10.31 25.27 10.68C25.22 10.71 25.27 10.78 25.31 10.75C25.98 10.45 26.65 10.25 27.39 10.22C27.45 10.22 27.46 10.12 27.39 10.12H27.4Z" fill="white"/>
</g>
<g opacity="0.76">
<path d="M22.64 8.97C22.16 8.83 21.66 8.70999 21.16 8.67999C21.13 8.67999 21.12 8.72999 21.16 8.73999C21.65 8.83999 22.14 8.92 22.62 9.06C22.68 9.08 22.7 8.98 22.65 8.97H22.64Z" fill="white"/>
</g>
<g opacity="0.26">
<path d="M24.83 5.82001C25.1 7.05001 25.51 8.26001 26.15 9.35001C26.19 9.42001 26.3 9.35 26.26 9.28C25.72 8.14 25.24 7.01001 24.92 5.79001C24.9 5.73001 24.81 5.75001 24.82 5.82001H24.83Z" fill="white"/>
</g>
<g opacity="0.76">
<path d="M24.94 6.13C25.08 6.83 25.3 7.50001 25.6 8.14001C25.62 8.18001 25.69 8.14998 25.67 8.10998C25.4 7.45998 25.18 6.78998 25.02 6.10998C25.01 6.05998 24.93 6.08 24.94 6.13Z" fill="white"/>
</g>
<g opacity="0.76">
<path d="M22.76 6.73001C22.99 7.04001 23.21 7.35001 23.47 7.63001C23.48 7.65001 23.51 7.62999 23.5 7.60999C23.3 7.28999 23.05 6.99001 22.82 6.69001C22.8 6.66001 22.74 6.70001 22.77 6.73001H22.76Z" fill="white"/>
</g>
<g opacity="0.76">
<path d="M23.67 8.04C23.8 8.2 23.92 8.36999 24.05 8.52999C24.08 8.56999 24.15 8.52 24.12 8.48C24 8.31 23.87 8.14998 23.74 7.98998C23.71 7.94998 23.64 8 23.67 8.04Z" fill="white"/>
</g>
<g opacity="0.76">
<path d="M18.15 8.07001C17.87 7.94001 17.59 7.82 17.29 7.75C17.28 7.75 17.27 7.76999 17.29 7.76999C17.57 7.88999 17.86 7.98001 18.16 8.07001H18.15Z" fill="white"/>
</g>
<g opacity="0.76">
<path d="M14.04 5.60997C14.65 6.23997 15.38 6.62998 16.15 7.04998C16.15 7.04998 16.17 7.05 16.15 7.04C15.42 6.62 14.67 6.17998 14.06 5.58998C14.04 5.57998 14.02 5.58997 14.04 5.60997Z" fill="white"/>
</g>
<g opacity="0.76">
<path d="M12.16 6.45001C12.92 6.88001 13.71 7.26 14.52 7.6C14.53 7.6 14.55 7.58998 14.53 7.57998C13.74 7.20998 12.96 6.80999 12.19 6.39999C12.16 6.37999 12.13 6.43001 12.16 6.45001Z" fill="white"/>
</g>
<g opacity="0.76">
<path d="M14.63 8.49999C13.47 8.97999 12.35 9.50998 11.3 10.21C11.28 10.22 11.3 10.25 11.32 10.24C12.41 9.62998 13.49 9.02 14.63 8.51C14.63 8.51 14.63 8.48999 14.63 8.49999Z" fill="white"/>
</g>
<g opacity="0.76">
<path d="M13.52 7.89001C12.24 7.93001 10.95 7.98 9.67001 8.03C9.63001 8.03 9.63001 8.09 9.67001 8.09C10.95 8.05 12.24 8.00001 13.52 7.95001C13.56 7.95001 13.56 7.89001 13.52 7.89001Z" fill="white"/>
</g>
<g opacity="0.76">
<path d="M8.86999 8.01999C8.62999 8.06999 8.38 8.08999 8.13 8.07999C8.08 8.07999 8.08 8.14999 8.13 8.14999C8.39 8.15999 8.64001 8.13999 8.89001 8.07999C8.94001 8.06999 8.91999 8.00001 8.86999 8.01001V8.01999Z" fill="white"/>
</g>
<path d="M30.24 9.27999C38.21 12.17 46.32 15.69 53.07 20.94C53.4 21.19 53.74 20.69 53.43 20.43C46.99 14.98 38.36 11.31 30.45 8.73C30.08 8.61 29.87 9.15 30.24 9.29V9.27999Z" fill="#584633"/>
<path d="M34.46 10.8C36.28 9.46998 38.28 8.62998 40.47 8.10998C40.7 8.05998 40.66 7.69001 40.42 7.73001C38.13 8.13001 36.04 9.09001 34.19 10.45C33.96 10.62 34.24 10.96 34.46 10.8Z" fill="url(#paint8_linear_2_15)"/>
<path d="M35.64 10.95C36.97 10.13 38.38 9.60999 39.88 9.17999C40.02 9.13999 39.95 8.89999 39.81 8.92999C38.23 9.17999 36.76 9.84001 35.44 10.7C35.27 10.81 35.47 11.06 35.64 10.96V10.95Z" fill="url(#paint9_linear_2_15)"/>
<path d="M36.71 11.41C38.76 10.22 40.86 9.7 43.19 9.31C43.41 9.27 43.36 8.97 43.14 8.97C40.78 8.97 38.44 9.89 36.49 11.13C36.3 11.25 36.52 11.52 36.71 11.41Z" fill="url(#paint10_linear_2_15)"/>
<path d="M37.94 11.74C39.97 10.93 42.55 9.70999 44.8 9.99999C45.02 10.03 45.05 9.72001 44.84 9.67001C42.49 9.13001 39.86 10.45 37.78 11.35C37.53 11.46 37.7 11.84 37.95 11.74H37.94Z" fill="url(#paint11_linear_2_15)"/>
<path d="M38.38 12.29C41.07 11.21 43.73 10.71 46.64 10.68C46.9 10.68 46.89 10.24 46.64 10.22C43.75 10.03 40.8 10.63 38.24 11.94C38.04 12.04 38.16 12.37 38.38 12.28V12.29Z" fill="url(#paint12_linear_2_15)"/>
<path d="M39.35 12.44C42.17 11.82 45.02 11.45 47.92 11.39C48.2 11.39 48.13 10.96 47.86 10.96C44.94 11 42.07 11.38 39.27 12.13C39.1 12.18 39.18 12.47 39.36 12.43L39.35 12.44Z" fill="url(#paint13_linear_2_15)"/>
<path d="M40.12 12.91C43.72 12.28 47.31 12.33 50.96 12.7C51.19 12.72 51.23 12.39 51 12.34C47.37 11.6 43.65 11.75 40.05 12.45C39.76 12.51 39.83 12.95 40.12 12.9V12.91Z" fill="url(#paint14_linear_2_15)"/>
<path d="M39.66 13.02C41.33 13.55 43.2 13.42 44.93 13.47C46.94 13.53 48.94 13.59 50.95 13.52C51.21 13.52 51.2 13.09 50.95 13.07C48.97 12.89 47 12.83 45.01 12.78C43.3 12.73 41.46 12.92 39.79 12.5C39.49 12.43 39.37 12.93 39.66 13.02Z" fill="url(#paint15_linear_2_15)"/>
<path d="M41.73 13.49C45.6 14.8 49.7 14.24 53.68 14.78C54.01 14.83 54.05 14.35 53.74 14.28C49.81 13.43 45.75 14.34 41.87 13.14C41.64 13.07 41.51 13.4 41.74 13.48L41.73 13.49Z" fill="url(#paint16_linear_2_15)"/>
<path d="M43.05 14.35C46.24 15.45 49.75 15.61 53.07 15.96C53.35 15.99 53.39 15.58 53.12 15.53C49.86 15.02 46.41 14.85 43.23 13.9C42.94 13.81 42.76 14.24 43.06 14.35H43.05Z" fill="url(#paint17_linear_2_15)"/>
<path d="M45.26 15.61C48.64 17.13 52.38 16.98 55.88 18.04C56.08 18.1 56.2 17.82 56 17.74C52.6 16.3 48.84 16.55 45.41 15.23C45.15 15.13 45.01 15.51 45.26 15.62V15.61Z" fill="url(#paint18_linear_2_15)"/>
<path d="M47.72 17.13C50.47 17.85 53.3 18.7 56.11 19.06C56.32 19.09 56.41 18.76 56.2 18.69C53.47 17.79 50.55 17.38 47.76 16.71C47.49 16.65 47.45 17.06 47.71 17.13H47.72Z" fill="url(#paint19_linear_2_15)"/>
<path d="M49.11 18.18C50.26 18.83 51.49 19.19 52.74 19.6C54.45 20.16 55.98 21 57.45 22.04C57.68 22.2 57.9 21.88 57.7 21.7C55.2 19.52 52.16 19.26 49.33 17.79C49.11 17.67 48.9 18.05 49.12 18.17L49.11 18.18Z" fill="url(#paint20_linear_2_15)"/>
<path d="M52.07 20.1C53.68 20.86 55.18 21.78 56.71 22.69C56.88 22.79 57.06 22.57 56.89 22.44C55.47 21.33 53.84 20.5 52.2 19.76C51.98 19.66 51.85 20 52.07 20.1Z" fill="url(#paint21_linear_2_15)"/>
<path d="M34.5 10.7C35.41 11.9 35.74 13.35 36.54 14.6C37.31 15.8 38.49 16.74 39.55 17.68C39.7 17.81 39.86 17.57 39.72 17.44C38.37 16.17 37.29 14.92 36.49 13.23C36.01 12.2 35.63 11.26 34.91 10.37C34.69 10.1 34.29 10.42 34.49 10.69L34.5 10.7Z" fill="url(#paint22_linear_2_15)"/>
<path d="M35.65 10.99C36.53 13.02 37.7 14.89 39.15 16.57C39.34 16.79 39.66 16.54 39.5 16.3C38.28 14.51 36.97 12.79 36.05 10.83C35.93 10.57 35.53 10.73 35.65 10.99Z" fill="url(#paint23_linear_2_15)"/>
<path d="M36.65 11.84C38.63 13.94 39.85 16.86 41.45 19.26C41.59 19.47 41.96 19.26 41.84 19.04C40.48 16.55 39.05 13.57 37.03 11.55C36.81 11.33 36.44 11.61 36.66 11.84H36.65Z" fill="url(#paint24_linear_2_15)"/>
<path d="M38.17 12.03C40.5 14.62 42.02 17.78 44.38 20.34C44.57 20.54 44.89 20.3 44.71 20.08C42.5 17.38 40.97 14.19 38.43 11.75C38.27 11.6 38.01 11.86 38.16 12.02L38.17 12.03Z" fill="url(#paint25_linear_2_15)"/>
<path d="M39.34 12.75C42.06 15.29 43.27 19 46.12 21.4C46.29 21.55 46.55 21.29 46.39 21.12C43.88 18.39 42.46 14.81 39.57 12.43C39.37 12.26 39.15 12.57 39.33 12.75H39.34Z" fill="url(#paint26_linear_2_15)"/>
<path d="M40.41 13.16C42.87 15.21 44.38 18.09 46.73 20.24C46.94 20.43 47.28 20.09 47.08 19.88C44.89 17.56 43.24 14.76 40.62 12.87C40.43 12.73 40.23 13.01 40.41 13.16Z" fill="url(#paint27_linear_2_15)"/>
<path d="M42.7 14.14C44.91 16.46 46.86 18.95 48.89 21.41C49.09 21.65 49.43 21.38 49.26 21.12C47.51 18.44 45.28 16.06 42.98 13.84C42.81 13.68 42.53 13.96 42.7 14.13V14.14Z" fill="url(#paint28_linear_2_15)"/>
<path d="M45.89 16.13C45.67 16.39 51.11 22.77 51.65 23.43C51.77 23.58 52.05 23.43 51.95 23.26C50.91 21.48 49.67 19.83 48.33 18.26C47.86 17.71 46.6 15.73 45.78 15.83C45.71 15.83 45.64 15.9 45.64 15.97C45.64 15.99 45.64 16.01 45.64 16.03C45.64 16.18 45.81 16.25 45.9 16.14L45.89 16.13Z" fill="url(#paint29_linear_2_15)"/>
<path d="M46.95 16.73C49.04 19.02 50.96 21.41 52.83 23.87C53 24.09 53.32 23.84 53.16 23.61C51.38 21.08 49.37 18.74 47.21 16.52C47.06 16.36 46.79 16.56 46.94 16.73H46.95Z" fill="url(#paint30_linear_2_15)"/>
<path d="M47.45 17.04C50.48 18.89 52.8 21.27 54.93 24.08C55.08 24.27 55.33 24.06 55.21 23.86C53.38 20.87 50.65 18.52 47.62 16.8C47.46 16.71 47.28 16.93 47.45 17.04Z" fill="url(#paint31_linear_2_15)"/>
<path d="M49.67 18.21C52.45 20.42 55.18 22.72 58.06 24.79C58.24 24.92 58.42 24.67 58.25 24.53C55.54 22.24 52.65 20.15 49.83 17.99C49.69 17.88 49.53 18.1 49.67 18.21Z" fill="url(#paint32_linear_2_15)"/>
<path d="M34.75 10.7C37.85 12.12 41.41 11.51 44.67 12.3C44.92 12.36 44.98 11.99 44.77 11.89C41.67 10.44 38.08 11.58 34.93 10.26C34.64 10.14 34.47 10.58 34.75 10.71V10.7Z" fill="url(#paint33_linear_2_15)"/>
<path d="M36 11.56C39.55 12.92 43.4 13 47.03 14.08C47.3 14.16 47.47 13.78 47.19 13.67C43.67 12.2 39.74 12.41 36.13 11.22C35.9 11.14 35.76 11.48 35.99 11.57L36 11.56Z" fill="url(#paint34_linear_2_15)"/>
<path d="M40.41 13.13C43.71 14.7 47.38 15.16 50.85 16.18C51.1 16.25 51.25 15.91 51 15.8C47.63 14.38 43.9 14.27 40.53 12.83C40.33 12.75 40.22 13.04 40.41 13.13Z" fill="url(#paint35_linear_2_15)"/>
<path d="M44.79 15.3C47.03 15.78 49.24 16.3 51.14 17.68C51.42 17.89 51.72 17.48 51.46 17.25C49.57 15.69 47.18 15.26 44.84 14.91C44.58 14.87 44.55 15.25 44.8 15.3H44.79Z" fill="url(#paint36_linear_2_15)"/>
<path d="M47.56 16.87C49.66 17.78 51.68 18.84 53.74 19.84C54.01 19.97 54.26 19.54 53.99 19.38C52 18.22 49.86 17.31 47.72 16.46C47.46 16.36 47.3 16.75 47.56 16.86V16.87Z" fill="url(#paint37_linear_2_15)"/>
<path d="M28.03 7.22C20.23 10.52 12.31 14.46 5.84 20.04C5.53 20.31 5.16001 19.83 5.45001 19.55C11.6 13.77 20.03 9.66001 27.79 6.67001C28.15 6.53001 28.39 7.05999 28.03 7.20999V7.22Z" fill="#584633"/>
<path d="M23.89 8.95C22.01 7.72 19.97 6.97998 17.75 6.57998C17.52 6.53998 17.54 6.17 17.79 6.2C20.1 6.48 22.23 7.32999 24.16 8.58999C24.39 8.73999 24.14 9.11 23.9 8.95H23.89Z" fill="url(#paint38_linear_2_15)"/>
<path d="M22.72 9.17001C21.35 8.42001 19.91 7.97999 18.39 7.61999C18.24 7.58999 18.3 7.34998 18.45 7.35998C20.04 7.51998 21.54 8.10999 22.91 8.89999C23.09 8.99999 22.91 9.26001 22.72 9.17001Z" fill="url(#paint39_linear_2_15)"/>
<path d="M21.67 9.67998C19.56 8.59998 17.44 8.19 15.09 7.92C14.87 7.89 14.91 7.58998 15.12 7.57998C17.48 7.46998 19.86 8.25998 21.87 9.39998C22.07 9.50998 21.86 9.78999 21.66 9.68999L21.67 9.67998Z" fill="url(#paint40_linear_2_15)"/>
<path d="M20.47 10.07C18.4 9.35999 15.76 8.28999 13.53 8.68999C13.31 8.72999 13.27 8.41997 13.48 8.35997C15.8 7.69997 18.5 8.88 20.62 9.67C20.87 9.76 20.73 10.16 20.47 10.07Z" fill="url(#paint41_linear_2_15)"/>
<path d="M20.06 10.65C17.32 9.71 14.64 9.35 11.73 9.47C11.47 9.48 11.45 9.04001 11.71 9.01001C14.59 8.67001 17.57 9.11999 20.18 10.3C20.39 10.39 20.28 10.72 20.05 10.65H20.06Z" fill="url(#paint42_linear_2_15)"/>
<path d="M19.09 10.85C16.24 10.37 13.38 10.16 10.48 10.25C10.2 10.25 10.25 9.83002 10.52 9.82002C13.44 9.71002 16.32 9.94002 19.16 10.54C19.33 10.58 19.27 10.88 19.09 10.85Z" fill="url(#paint43_linear_2_15)"/>
<path d="M18.35 11.36C14.72 10.92 11.14 11.15 7.51 11.71C7.28 11.75 7.23 11.41 7.45 11.36C11.04 10.43 14.76 10.39 18.39 10.91C18.68 10.95 18.64 11.4 18.35 11.37V11.36Z" fill="url(#paint44_linear_2_15)"/>
<path d="M18.81 11.44C17.17 12.06 15.29 12.02 13.57 12.16C11.56 12.32 9.56999 12.48 7.55999 12.52C7.29999 12.52 7.29 12.1 7.54 12.07C9.51 11.79 11.48 11.63 13.45 11.47C15.15 11.34 17 11.42 18.65 10.92C18.95 10.83 19.1 11.32 18.81 11.43V11.44Z" fill="url(#paint45_linear_2_15)"/>
<path d="M16.77 12.02C12.98 13.53 8.84999 13.18 4.89999 13.93C4.57999 13.99 4.51 13.52 4.82 13.43C8.7 12.38 12.8 13.08 16.62 11.68C16.84 11.6 17 11.92 16.77 12.01V12.02Z" fill="url(#paint46_linear_2_15)"/>
<path d="M15.5 12.95C12.37 14.21 8.87999 14.56 5.57999 15.08C5.30999 15.12 5.24002 14.71 5.51002 14.66C8.74002 13.98 12.18 13.64 15.3 12.52C15.59 12.42 15.79 12.84 15.5 12.96V12.95Z" fill="url(#paint47_linear_2_15)"/>
<path d="M13.36 14.33C10.06 16.03 6.31999 16.07 2.87999 17.3C2.67999 17.37 2.54999 17.1 2.74999 17.01C6.06999 15.39 9.83999 15.45 13.19 13.95C13.44 13.84 13.61 14.21 13.36 14.33Z" fill="url(#paint48_linear_2_15)"/>
<path d="M10.98 15.97C8.27001 16.83 5.49001 17.83 2.70001 18.33C2.49001 18.37 2.37999 18.05 2.58999 17.97C5.26999 16.93 8.16 16.37 10.91 15.56C11.17 15.48 11.23 15.89 10.98 15.97Z" fill="url(#paint49_linear_2_15)"/>
<path d="M9.64999 17.09C8.52999 17.8 7.33 18.22 6.1 18.7C4.42 19.35 2.93998 20.27 1.51998 21.38C1.29998 21.55 1.05999 21.25 1.24999 21.06C3.63999 18.75 6.66 18.34 9.41 16.72C9.63 16.59 9.85001 16.95 9.64001 17.09H9.64999Z" fill="url(#paint50_linear_2_15)"/>
<path d="M6.79002 19.16C5.22002 20 3.78002 21 2.29002 21.98C2.12002 22.09 1.93001 21.88 2.09001 21.74C3.45001 20.56 5.04003 19.64 6.64003 18.83C6.85003 18.72 7.00002 19.05 6.79002 19.16Z" fill="url(#paint51_linear_2_15)"/>
<path d="M23.84 8.85998C22.99 10.11 22.74 11.57 22 12.86C21.29 14.1 20.17 15.1 19.16 16.09C19.02 16.23 18.84 16 18.97 15.86C20.26 14.52 21.27 13.22 21.97 11.49C22.4 10.44 22.73 9.47998 23.4 8.54998C23.6 8.26998 24.03 8.56 23.83 8.85L23.84 8.85998Z" fill="url(#paint52_linear_2_15)"/>
<path d="M22.72 9.20999C21.95 11.29 20.87 13.21 19.51 14.96C19.33 15.19 18.99 14.96 19.15 14.71C20.28 12.86 21.49 11.08 22.31 9.07001C22.42 8.81001 22.82 8.93999 22.72 9.20999Z" fill="url(#paint53_linear_2_15)"/>
<path d="M21.76 10.11C19.89 12.31 18.82 15.29 17.35 17.77C17.22 17.99 16.84 17.8 16.95 17.57C18.18 15.01 19.46 11.97 21.36 9.83998C21.56 9.60998 21.95 9.86997 21.75 10.11H21.76Z" fill="url(#paint54_linear_2_15)"/>
<path d="M20.25 10.38C18.05 13.09 16.7 16.32 14.47 19.01C14.3 19.22 13.96 19 14.12 18.77C16.19 15.96 17.55 12.69 19.96 10.13C20.11 9.97002 20.38 10.22 20.24 10.39L20.25 10.38Z" fill="url(#paint55_linear_2_15)"/>
<path d="M19.12 11.16C16.53 13.84 15.52 17.6 12.8 20.15C12.64 20.3 12.37 20.06 12.51 19.88C14.87 17.02 16.11 13.38 18.87 10.85C19.06 10.67 19.3 10.97 19.12 11.16Z" fill="url(#paint56_linear_2_15)"/>
<path d="M18.08 11.62C15.73 13.8 14.38 16.75 12.13 19.01C11.93 19.21 11.58 18.89 11.76 18.67C13.82 16.24 15.33 13.36 17.85 11.34C18.03 11.19 18.25 11.46 18.08 11.62Z" fill="url(#paint57_linear_2_15)"/>
<path d="M15.84 12.72C13.75 15.15 11.94 17.74 10.03 20.31C9.83999 20.56 9.49 20.31 9.64 20.04C11.25 17.27 13.35 14.78 15.53 12.45C15.69 12.28 15.98 12.55 15.83 12.72H15.84Z" fill="url(#paint58_linear_2_15)"/>
<path d="M12.75 14.87C12.99 15.11 7.88002 21.77 7.38002 22.46C7.27002 22.61 6.98 22.49 7.08 22.31C8.03 20.48 9.18001 18.76 10.44 17.13C10.88 16.56 12.04 14.51 12.86 14.57C12.93 14.57 13 14.63 13.01 14.7C13.01 14.72 13.01 14.74 13.01 14.76C13.02 14.91 12.86 14.99 12.75 14.88V14.87Z" fill="url(#paint59_linear_2_15)"/>
<path d="M11.72 15.52C9.75 17.91 7.94999 20.4 6.20999 22.96C6.04999 23.19 5.71999 22.96 5.86999 22.72C7.50999 20.1 9.41 17.66 11.44 15.33C11.58 15.17 11.86 15.35 11.72 15.52Z" fill="url(#paint60_linear_2_15)"/>
<path d="M11.24 15.87C8.30999 17.88 6.11 20.37 4.13 23.29C4 23.49 3.72999 23.29 3.83999 23.09C5.50999 20.01 8.10998 17.52 11.05 15.65C11.21 15.55 11.4 15.77 11.24 15.88V15.87Z" fill="url(#paint61_linear_2_15)"/>
<path d="M9.09001 17.15C6.43001 19.5 3.82 21.94 1.05 24.16C0.880001 24.3 0.690009 24.05 0.840009 23.91C3.43001 21.48 6.21002 19.24 8.91002 16.94C9.05002 16.82 9.22 17.03 9.08 17.15H9.09001Z" fill="url(#paint62_linear_2_15)"/>
<path d="M23.59 8.87001C20.56 10.45 16.98 10.02 13.77 10.98C13.52 11.05 13.44 10.68 13.65 10.57C16.67 8.96002 20.31 9.91 23.4 8.43C23.69 8.29 23.88 8.72001 23.6 8.87001H23.59Z" fill="url(#paint63_linear_2_15)"/>
<path d="M22.39 9.79999C18.91 11.34 15.07 11.62 11.5 12.89C11.23 12.98 11.05 12.61 11.32 12.49C14.76 10.84 18.7 10.84 22.24 9.45999C22.47 9.36999 22.62 9.69999 22.39 9.79999Z" fill="url(#paint64_linear_2_15)"/>
<path d="M18.07 11.6C14.86 13.34 11.22 13.99 7.8 15.19C7.56 15.28 7.39002 14.94 7.63002 14.82C10.92 13.23 14.64 12.92 17.93 11.31C18.12 11.22 18.25 11.5 18.06 11.61L18.07 11.6Z" fill="url(#paint65_linear_2_15)"/>
<path d="M13.81 13.99C11.6 14.59 9.41 15.22 7.59 16.69C7.32 16.91 7.00001 16.52 7.25001 16.28C9.05001 14.62 11.42 14.07 13.74 13.6C13.99 13.55 14.05 13.92 13.8 13.99H13.81Z" fill="url(#paint66_linear_2_15)"/>
<path d="M11.12 15.7C9.06999 16.72 7.10998 17.89 5.10998 18.99C4.84998 19.13 4.57998 18.72 4.82998 18.55C6.75998 17.29 8.85 16.27 10.94 15.31C11.2 15.19 11.37 15.58 11.12 15.7Z" fill="url(#paint67_linear_2_15)"/>
<path d="M26.68 6.14999C27.37 6.90999 27.32 8.08999 26.56 8.77999C25.8 9.46999 24.62 9.42 23.93 8.66C23.24 7.9 23.29 6.71999 24.05 6.02999C24.81 5.33999 25.99 5.38999 26.68 6.14999Z" fill="url(#paint68_radial_2_15)"/>
<path d="M27.46 7C28.3 9.35 29.92 10.56 30.84 10.81C30.84 10.81 29.33 11.1 29.59 12.09C29.85 13.08 31.6 14.18 31.6 14.18C31.6 14.18 29.56 13.41 29.48 14.31C29.4 15.23 31.03 16.38 31.03 16.38C31.03 16.38 29.66 16.52 29.26 18.02C28.82 19.71 30.3 22.07 30.3 22.07C30.3 22.07 29.07 21.24 28.42 21.93C27.97 22.42 28.82 23.81 28.82 23.81C28.82 23.81 27.62 22.62 27.14 23.06C26.65 23.5 26.81 24.8 26.81 24.8C26.81 24.8 25.98 23.97 24.85 24.3C23.34 24.74 22.33 25.47 22.33 25.47C22.33 25.47 25.09 20.9 23.2 20.19C22.62 19.97 21.51 20.72 21.51 20.72C21.51 20.72 22.98 18.38 22.08 17.87C21.17 17.36 20.5 17.95 20.5 17.95C20.5 17.95 20.96 17.6 21.49 16.93C22.06 16.2 22.88 15.29 22.25 14.91C21.4 14.4 20.3 14.66 20.3 14.66C20.3 14.66 23.32 12.32 24.39 10.97C25.89 9.07 27.44 6.98001 27.44 6.98001L27.46 7Z" fill="url(#paint69_linear_2_15)"/>
<path d="M27.46 7C27.46 7 25.91 9.08999 24.41 10.99C23.34 12.34 20.32 14.68 20.32 14.68C20.32 14.68 21.42 14.42 22.27 14.93C22.91 15.31 22.09 16.22 21.51 16.95C20.98 17.62 20.52 17.97 20.52 17.97C20.52 17.97 21.19 17.38 22.1 17.89C23.01 18.4 21.53 20.74 21.53 20.74C21.53 20.74 22.63 19.99 23.22 20.21C25.11 20.91 22.35 25.49 22.35 25.49C22.35 25.49 22.74 25.21 23.4 24.89C23.54 24.82 25.6 22.91 26.13 16.94C26.43 13.58 27.46 7.01001 27.46 7.01001V7Z" fill="url(#paint70_linear_2_15)"/>
<path d="M27.17 8.51998C27.86 9.27998 27.81 10.46 27.05 11.15C26.29 11.84 25.11 11.79 24.42 11.03C23.73 10.27 23.78 9.08999 24.54 8.39999C25.3 7.70999 26.48 7.75998 27.17 8.51998Z" fill="url(#paint71_radial_2_15)"/>
<path d="M36.53 18.21C35.5 17.34 34.12 16.1 33.46 16.45C32.8 16.8 33.04 17.35 33.04 17.35C33.04 17.35 32.47 14.88 30.4 16.03C30.4 16.03 30.74 13.96 29.91 13.85C29.24 13.76 28.93 14.61 28.93 14.61C28.93 14.61 29 11.94 28.38 11.8C27.82 11.67 27.24 12.31 27.24 12.31C27.24 12.31 27.79 11.07 28.17 9.73001C28.55 8.39001 29.03 7.73 29.67 7.62C29.67 7.62 32.29 8.35999 33.14 8.14999C33.14 8.14999 32.24 8.54001 32.55 8.92001C32.86 9.30001 34.63 9.64999 34.63 9.64999C34.63 9.64999 31.86 9.95 32.92 10.91C33.98 11.87 35.59 11.38 35.59 11.38C35.59 11.38 34.4 11.77 34.47 12.64C34.54 13.51 35.83 13.84 35.83 13.84C35.83 13.84 35.23 13.99 35.47 15.12C35.8 16.71 36.52 18.22 36.52 18.22L36.53 18.21Z" fill="url(#paint72_linear_2_15)"/>
<path d="M36.53 18.21C36.53 18.21 35.81 16.7 35.48 15.11C35.24 13.98 35.84 13.83 35.84 13.83C35.84 13.83 34.55 13.5 34.48 12.63C34.41 11.76 35.6 11.37 35.6 11.37C35.6 11.37 33.99 11.86 32.93 10.9C31.87 9.93999 34.64 9.64001 34.64 9.64001C34.64 9.64001 32.87 9.29 32.56 8.91C32.25 8.53 33.15 8.14001 33.15 8.14001C32.3 8.35001 29.68 7.60999 29.68 7.60999C29.68 7.60999 28.59 8.14999 29.54 9.32999C30.01 9.90999 31.68 12.72 33.18 14.63C34.71 16.58 36.53 18.21 36.53 18.21Z" fill="url(#paint73_linear_2_15)"/>
<path d="M29.25 6.33999C29.94 7.09999 29.89 8.28 29.13 8.97C28.37 9.66 27.19 9.61 26.5 8.85C25.81 8.09 25.86 6.90999 26.62 6.21999C27.38 5.52999 28.56 5.57999 29.25 6.33999Z" fill="url(#paint74_radial_2_15)"/>
<defs>
<radialGradient id="paint0_radial_2_15" cx="0" cy="0" r="1" gradientUnits="userSpaceOnUse" gradientTransform="translate(22.8546 14.7531) rotate(33.61) scale(13.74 31.0524)">
<stop offset="0.1" stop-color="#FCE3B2"/>
<stop offset="0.44" stop-color="#D7B696"/>
<stop offset="0.68" stop-color="#C09A77"/>
<stop offset="0.85" stop-color="#A17A61"/>
<stop offset="1" stop-color="#C9A583"/>
</radialGradient>
<radialGradient id="paint1_radial_2_15" cx="0" cy="0" r="1" gradientUnits="userSpaceOnUse" gradientTransform="translate(16.0368 24.8827) rotate(64.7901) scale(1.63 1.63)">
<stop offset="0.1" stop-color="#FCE3B2"/>
<stop offset="0.44" stop-color="#D7B696"/>
<stop offset="0.68" stop-color="#C09A77"/>
<stop offset="0.85" stop-color="#A17A61"/>
<stop offset="1" stop-color="#C9A583"/>
</radialGradient>
<radialGradient id="paint2_radial_2_15" cx="0" cy="0" r="1" gradientUnits="userSpaceOnUse" gradientTransform="translate(32.3386 14.038) rotate(138.44) scale(15.02 33.9452)">
<stop offset="0.1" stop-color="#FCE3B2"/>
<stop offset="0.44" stop-color="#D7B696"/>
<stop offset="0.68" stop-color="#C09A77"/>
<stop offset="0.85" stop-color="#A17A61"/>
<stop offset="1" stop-color="#C9A583"/>
</radialGradient>
<radialGradient id="paint3_radial_2_15" cx="0" cy="0" r="1" gradientUnits="userSpaceOnUse" gradientTransform="translate(41.0636 23.7455) rotate(107.26) scale(1.78 1.78)">
<stop offset="0.1" stop-color="#FCE3B2"/>
<stop offset="0.44" stop-color="#D7B696"/>
<stop offset="0.68" stop-color="#C09A77"/>
<stop offset="0.85" stop-color="#A17A61"/>
<stop offset="1" stop-color="#C9A583"/>
</radialGradient>
<radialGradient id="paint4_radial_2_15" cx="0" cy="0" r="1" gradientUnits="userSpaceOnUse" gradientTransform="translate(37.4889 9.05267) rotate(81.14) scale(15.02 33.9452)">
<stop offset="0.1" stop-color="#FCE3B2"/>
<stop offset="0.44" stop-color="#D7B696"/>
<stop offset="0.68" stop-color="#C09A77"/>
<stop offset="0.85" stop-color="#A17A61"/>
<stop offset="1" stop-color="#C9A583"/>
</radialGradient>
<radialGradient id="paint5_radial_2_15" cx="0" cy="0" r="1" gradientUnits="userSpaceOnUse" gradientTransform="translate(50.6052 6.95187) rotate(49.9599) scale(1.78 1.78)">
<stop offset="0.1" stop-color="#FCE3B2"/>
<stop offset="0.44" stop-color="#D7B696"/>
<stop offset="0.68" stop-color="#C09A77"/>
<stop offset="0.85" stop-color="#A17A61"/>
<stop offset="1" stop-color="#C9A583"/>
</radialGradient>
<radialGradient id="paint6_radial_2_15" cx="0" cy="0" r="1" gradientUnits="userSpaceOnUse" gradientTransform="translate(20.5698 10.1446) rotate(98.86) scale(15.02 33.9452)">
<stop offset="0.1" stop-color="#FCE3B2"/>
<stop offset="0.44" stop-color="#D7B696"/>
<stop offset="0.68" stop-color="#C09A77"/>
<stop offset="0.85" stop-color="#A17A61"/>
<stop offset="1" stop-color="#C9A583"/>
</radialGradient>
<radialGradient id="paint7_radial_2_15" cx="0" cy="0" r="1" gradientUnits="userSpaceOnUse" gradientTransform="translate(7.27221 7.82432) rotate(130.04) scale(1.78 1.78)">
<stop offset="0.1" stop-color="#FCE3B2"/>
<stop offset="0.44" stop-color="#D7B696"/>
<stop offset="0.68" stop-color="#C09A77"/>
<stop offset="0.85" stop-color="#A17A61"/>
<stop offset="1" stop-color="#C9A583"/>
</radialGradient>
<linearGradient id="paint8_linear_2_15" x1="45.9587" y1="6.72181" x2="35.6279" y2="9.771" gradientUnits="userSpaceOnUse">
<stop offset="0.16" stop-color="#86A75F"/>
<stop offset="0.66" stop-color="#477342"/>
<stop offset="1" stop-color="#304C1A"/>
</linearGradient>
<linearGradient id="paint9_linear_2_15" x1="46.1567" y1="7.42161" x2="35.8364" y2="10.4612" gradientUnits="userSpaceOnUse">
<stop offset="0.16" stop-color="#86A75F"/>
<stop offset="0.66" stop-color="#477342"/>
<stop offset="1" stop-color="#304C1A"/>
</linearGradient>
<linearGradient id="paint10_linear_2_15" x1="48.1419" y1="7.57287" x2="37.8116" y2="10.6121" gradientUnits="userSpaceOnUse">
<stop offset="0.16" stop-color="#86A75F"/>
<stop offset="0.66" stop-color="#477342"/>
<stop offset="1" stop-color="#304C1A"/>
</linearGradient>
<linearGradient id="paint11_linear_2_15" x1="49.1651" y1="8.18048" x2="38.8443" y2="11.2301" gradientUnits="userSpaceOnUse">
<stop offset="0.16" stop-color="#86A75F"/>
<stop offset="0.66" stop-color="#477342"/>
<stop offset="1" stop-color="#304C1A"/>
</linearGradient>
<linearGradient id="paint12_linear_2_15" x1="51.1061" y1="9.51092" x2="40.448" y2="11.4039" gradientUnits="userSpaceOnUse">
<stop offset="0.16" stop-color="#86A75F"/>
<stop offset="0.66" stop-color="#477342"/>
<stop offset="1" stop-color="#304C1A"/>
</linearGradient>
<linearGradient id="paint13_linear_2_15" x1="51.2574" y1="10.3587" x2="40.5992" y2="12.2517" gradientUnits="userSpaceOnUse">
<stop offset="0.16" stop-color="#86A75F"/>
<stop offset="0.66" stop-color="#477342"/>
<stop offset="1" stop-color="#304C1A"/>
</linearGradient>
<linearGradient id="paint14_linear_2_15" x1="41.3076" y1="12.3043" x2="52.5657" y2="12.8214" gradientUnits="userSpaceOnUse">
<stop stop-color="#304C1A"/>
<stop offset="0.34" stop-color="#477342"/>
<stop offset="0.84" stop-color="#86A75F"/>
</linearGradient>
<linearGradient id="paint15_linear_2_15" x1="41.2564" y1="12.9826" x2="52.9042" y2="13.5177" gradientUnits="userSpaceOnUse">
<stop stop-color="#304C1A"/>
<stop offset="0.34" stop-color="#477342"/>
<stop offset="0.84" stop-color="#86A75F"/>
</linearGradient>
<linearGradient id="paint16_linear_2_15" x1="41.5844" y1="13.6884" x2="53.9513" y2="14.2565" gradientUnits="userSpaceOnUse">
<stop stop-color="#304C1A"/>
<stop offset="0.34" stop-color="#477342"/>
<stop offset="0.84" stop-color="#86A75F"/>
</linearGradient>
<linearGradient id="paint17_linear_2_15" x1="48.1306" y1="14.1393" x2="48.0567" y2="15.7476" gradientUnits="userSpaceOnUse">
<stop stop-color="#304C1A"/>
<stop offset="0.34" stop-color="#477342"/>
<stop offset="0.84" stop-color="#86A75F"/>
</linearGradient>
<linearGradient id="paint18_linear_2_15" x1="50.6623" y1="15.4668" x2="50.5545" y2="17.8144" gradientUnits="userSpaceOnUse">
<stop stop-color="#304C1A"/>
<stop offset="0.34" stop-color="#477342"/>
<stop offset="0.84" stop-color="#86A75F"/>
</linearGradient>
<linearGradient id="paint19_linear_2_15" x1="51.9671" y1="16.9182" x2="51.8772" y2="18.8762" gradientUnits="userSpaceOnUse">
<stop stop-color="#304C1A"/>
<stop offset="0.34" stop-color="#477342"/>
<stop offset="0.84" stop-color="#86A75F"/>
</linearGradient>
<linearGradient id="paint20_linear_2_15" x1="53.4701" y1="17.9783" x2="53.2902" y2="21.8942" gradientUnits="userSpaceOnUse">
<stop stop-color="#304C1A"/>
<stop offset="0.34" stop-color="#477342"/>
<stop offset="0.84" stop-color="#86A75F"/>
</linearGradient>
<linearGradient id="paint21_linear_2_15" x1="54.5145" y1="19.8682" x2="54.3883" y2="22.6153" gradientUnits="userSpaceOnUse">
<stop stop-color="#304C1A"/>
<stop offset="0.34" stop-color="#477342"/>
<stop offset="0.84" stop-color="#86A75F"/>
</linearGradient>
<linearGradient id="paint22_linear_2_15" x1="37.2704" y1="10.407" x2="36.9396" y2="17.6094" gradientUnits="userSpaceOnUse">
<stop offset="0.23" stop-color="#304C1A"/>
<stop offset="0.51" stop-color="#477342"/>
<stop offset="0.84" stop-color="#86A75F"/>
</linearGradient>
<linearGradient id="paint23_linear_2_15" x1="37.713" y1="10.7977" x2="37.4473" y2="16.5816" gradientUnits="userSpaceOnUse">
<stop offset="0.23" stop-color="#304C1A"/>
<stop offset="0.51" stop-color="#477342"/>
<stop offset="0.84" stop-color="#86A75F"/>
</linearGradient>
<linearGradient id="paint24_linear_2_15" x1="39.3881" y1="11.5954" x2="39.0371" y2="19.2374" gradientUnits="userSpaceOnUse">
<stop offset="0.23" stop-color="#304C1A"/>
<stop offset="0.51" stop-color="#477342"/>
<stop offset="0.84" stop-color="#86A75F"/>
</linearGradient>
<linearGradient id="paint25_linear_2_15" x1="41.6279" y1="11.8685" x2="41.2416" y2="20.2796" gradientUnits="userSpaceOnUse">
<stop offset="0.23" stop-color="#304C1A"/>
<stop offset="0.51" stop-color="#477342"/>
<stop offset="0.84" stop-color="#86A75F"/>
</linearGradient>
<linearGradient id="paint26_linear_2_15" x1="43.0475" y1="12.5644" x2="42.6465" y2="21.2952" gradientUnits="userSpaceOnUse">
<stop offset="0.23" stop-color="#304C1A"/>
<stop offset="0.51" stop-color="#477342"/>
<stop offset="0.84" stop-color="#86A75F"/>
</linearGradient>
<linearGradient id="paint27_linear_2_15" x1="43.8882" y1="13.0034" x2="43.5597" y2="20.1559" gradientUnits="userSpaceOnUse">
<stop offset="0.23" stop-color="#304C1A"/>
<stop offset="0.51" stop-color="#477342"/>
<stop offset="0.84" stop-color="#86A75F"/>
</linearGradient>
<linearGradient id="paint28_linear_2_15" x1="46.1364" y1="13.9676" x2="45.7964" y2="21.3698" gradientUnits="userSpaceOnUse">
<stop offset="0.23" stop-color="#304C1A"/>
<stop offset="0.51" stop-color="#477342"/>
<stop offset="0.84" stop-color="#86A75F"/>
</linearGradient>
<linearGradient id="paint29_linear_2_15" x1="48.9575" y1="15.9691" x2="48.6184" y2="23.3513" gradientUnits="userSpaceOnUse">
<stop offset="0.23" stop-color="#304C1A"/>
<stop offset="0.51" stop-color="#477342"/>
<stop offset="0.84" stop-color="#86A75F"/>
</linearGradient>
<linearGradient id="paint30_linear_2_15" x1="50.2191" y1="16.6177" x2="49.8882" y2="23.8201" gradientUnits="userSpaceOnUse">
<stop offset="0.23" stop-color="#304C1A"/>
<stop offset="0.51" stop-color="#477342"/>
<stop offset="0.84" stop-color="#86A75F"/>
</linearGradient>
<linearGradient id="paint31_linear_2_15" x1="51.474" y1="16.9757" x2="51.1518" y2="23.9883" gradientUnits="userSpaceOnUse">
<stop offset="0.23" stop-color="#304C1A"/>
<stop offset="0.51" stop-color="#477342"/>
<stop offset="0.84" stop-color="#86A75F"/>
</linearGradient>
<linearGradient id="paint32_linear_2_15" x1="54.1016" y1="18.1775" x2="53.8047" y2="24.6407" gradientUnits="userSpaceOnUse">
<stop stop-color="#304C1A"/>
<stop offset="0.34" stop-color="#477342"/>
<stop offset="0.84" stop-color="#86A75F"/>
</linearGradient>
<linearGradient id="paint33_linear_2_15" x1="39.78" y1="10.4722" x2="39.7062" y2="12.0805" gradientUnits="userSpaceOnUse">
<stop stop-color="#304C1A"/>
<stop offset="0.34" stop-color="#477342"/>
<stop offset="0.84" stop-color="#86A75F"/>
</linearGradient>
<linearGradient id="paint34_linear_2_15" x1="41.6563" y1="11.4694" x2="41.5471" y2="13.8469" gradientUnits="userSpaceOnUse">
<stop stop-color="#304C1A"/>
<stop offset="0.34" stop-color="#477342"/>
<stop offset="0.84" stop-color="#86A75F"/>
</linearGradient>
<linearGradient id="paint35_linear_2_15" x1="45.7772" y1="13.0701" x2="45.6441" y2="15.9671" gradientUnits="userSpaceOnUse">
<stop stop-color="#304C1A"/>
<stop offset="0.34" stop-color="#477342"/>
<stop offset="0.84" stop-color="#86A75F"/>
</linearGradient>
<linearGradient id="paint36_linear_2_15" x1="48.1379" y1="15.0706" x2="48.0222" y2="17.5879" gradientUnits="userSpaceOnUse">
<stop stop-color="#304C1A"/>
<stop offset="0.34" stop-color="#477342"/>
<stop offset="0.84" stop-color="#86A75F"/>
</linearGradient>
<linearGradient id="paint37_linear_2_15" x1="50.8302" y1="16.6057" x2="50.6866" y2="19.7324" gradientUnits="userSpaceOnUse">
<stop stop-color="#304C1A"/>
<stop offset="0.34" stop-color="#477342"/>
<stop offset="0.84" stop-color="#86A75F"/>
</linearGradient>
<linearGradient id="paint38_linear_2_15" x1="12.2121" y1="5.48917" x2="22.676" y2="7.99" gradientUnits="userSpaceOnUse">
<stop offset="0.16" stop-color="#86A75F"/>
<stop offset="0.66" stop-color="#477342"/>
<stop offset="1" stop-color="#304C1A"/>
</linearGradient>
<linearGradient id="paint39_linear_2_15" x1="12.0396" y1="6.18931" x2="22.5045" y2="8.70005" gradientUnits="userSpaceOnUse">
<stop offset="0.16" stop-color="#86A75F"/>
<stop offset="0.66" stop-color="#477342"/>
<stop offset="1" stop-color="#304C1A"/>
</linearGradient>
<linearGradient id="paint40_linear_2_15" x1="10.0649" y1="6.44322" x2="20.5398" y2="8.95301" gradientUnits="userSpaceOnUse">
<stop offset="0.16" stop-color="#86A75F"/>
<stop offset="0.66" stop-color="#477342"/>
<stop offset="1" stop-color="#304C1A"/>
</linearGradient>
<linearGradient id="paint41_linear_2_15" x1="9.07557" y1="7.11296" x2="19.5396" y2="9.61376" gradientUnits="userSpaceOnUse">
<stop offset="0.16" stop-color="#86A75F"/>
<stop offset="0.66" stop-color="#477342"/>
<stop offset="1" stop-color="#304C1A"/>
</linearGradient>
<linearGradient id="paint42_linear_2_15" x1="7.20514" y1="8.5323" x2="17.947" y2="9.87047" gradientUnits="userSpaceOnUse">
<stop offset="0.16" stop-color="#86A75F"/>
<stop offset="0.66" stop-color="#477342"/>
<stop offset="1" stop-color="#304C1A"/>
</linearGradient>
<linearGradient id="paint43_linear_2_15" x1="7.09801" y1="9.38684" x2="17.8399" y2="10.725" gradientUnits="userSpaceOnUse">
<stop offset="0.16" stop-color="#86A75F"/>
<stop offset="0.66" stop-color="#477342"/>
<stop offset="1" stop-color="#304C1A"/>
</linearGradient>
<linearGradient id="paint44_linear_2_15" x1="17.1352" y1="10.8142" x2="5.91898" y2="11.9139" gradientUnits="userSpaceOnUse">
<stop stop-color="#304C1A"/>
<stop offset="0.34" stop-color="#477342"/>
<stop offset="0.84" stop-color="#86A75F"/>
</linearGradient>
<linearGradient id="paint45_linear_2_15" x1="17.2214" y1="11.489" x2="5.6171" y2="12.6268" gradientUnits="userSpaceOnUse">
<stop stop-color="#304C1A"/>
<stop offset="0.34" stop-color="#477342"/>
<stop offset="0.84" stop-color="#86A75F"/>
</linearGradient>
<linearGradient id="paint46_linear_2_15" x1="16.9305" y1="12.2108" x2="4.60958" y2="13.4189" gradientUnits="userSpaceOnUse">
<stop stop-color="#304C1A"/>
<stop offset="0.34" stop-color="#477342"/>
<stop offset="0.84" stop-color="#86A75F"/>
</linearGradient>
<linearGradient id="paint47_linear_2_15" x1="10.4165" y1="13.0002" x2="10.5736" y2="14.6025" gradientUnits="userSpaceOnUse">
<stop stop-color="#304C1A"/>
<stop offset="0.34" stop-color="#477342"/>
<stop offset="0.84" stop-color="#86A75F"/>
</linearGradient>
<linearGradient id="paint48_linear_2_15" x1="7.95687" y1="14.4572" x2="8.18619" y2="16.796" gradientUnits="userSpaceOnUse">
<stop stop-color="#304C1A"/>
<stop offset="0.34" stop-color="#477342"/>
<stop offset="0.84" stop-color="#86A75F"/>
</linearGradient>
<linearGradient id="paint49_linear_2_15" x1="6.72906" y1="15.9743" x2="6.9213" y2="17.9349" gradientUnits="userSpaceOnUse">
<stop stop-color="#304C1A"/>
<stop offset="0.34" stop-color="#477342"/>
<stop offset="0.84" stop-color="#86A75F"/>
</linearGradient>
<linearGradient id="paint50_linear_2_15" x1="5.28404" y1="17.1207" x2="5.66656" y2="21.022" gradientUnits="userSpaceOnUse">
<stop stop-color="#304C1A"/>
<stop offset="0.34" stop-color="#477342"/>
<stop offset="0.84" stop-color="#86A75F"/>
</linearGradient>
<linearGradient id="paint51_linear_2_15" x1="4.33803" y1="19.0523" x2="4.60639" y2="21.7892" gradientUnits="userSpaceOnUse">
<stop stop-color="#304C1A"/>
<stop offset="0.34" stop-color="#477342"/>
<stop offset="0.84" stop-color="#86A75F"/>
</linearGradient>
<linearGradient id="paint52_linear_2_15" x1="21.0686" y1="8.71028" x2="21.7722" y2="15.8859" gradientUnits="userSpaceOnUse">
<stop offset="0.23" stop-color="#304C1A"/>
<stop offset="0.51" stop-color="#477342"/>
<stop offset="0.84" stop-color="#86A75F"/>
</linearGradient>
<linearGradient id="paint53_linear_2_15" x1="20.647" y1="9.12342" x2="21.2129" y2="14.8957" gradientUnits="userSpaceOnUse">
<stop offset="0.23" stop-color="#304C1A"/>
<stop offset="0.51" stop-color="#477342"/>
<stop offset="0.84" stop-color="#86A75F"/>
</linearGradient>
<linearGradient id="paint54_linear_2_15" x1="19.0164" y1="10.0168" x2="19.7629" y2="17.6303" gradientUnits="userSpaceOnUse">
<stop offset="0.23" stop-color="#304C1A"/>
<stop offset="0.51" stop-color="#477342"/>
<stop offset="0.84" stop-color="#86A75F"/>
</linearGradient>
<linearGradient id="paint55_linear_2_15" x1="16.7937" y1="10.4056" x2="17.6143" y2="18.7754" gradientUnits="userSpaceOnUse">
<stop offset="0.23" stop-color="#304C1A"/>
<stop offset="0.51" stop-color="#477342"/>
<stop offset="0.84" stop-color="#86A75F"/>
</linearGradient>
<linearGradient id="paint56_linear_2_15" x1="15.4111" y1="11.1641" x2="16.2649" y2="19.8723" gradientUnits="userSpaceOnUse">
<stop offset="0.23" stop-color="#304C1A"/>
<stop offset="0.51" stop-color="#477342"/>
<stop offset="0.84" stop-color="#86A75F"/>
</linearGradient>
<linearGradient id="paint57_linear_2_15" x1="14.5942" y1="11.6461" x2="15.2929" y2="18.7719" gradientUnits="userSpaceOnUse">
<stop offset="0.23" stop-color="#304C1A"/>
<stop offset="0.51" stop-color="#477342"/>
<stop offset="0.84" stop-color="#86A75F"/>
</linearGradient>
<linearGradient id="paint58_linear_2_15" x1="12.3991" y1="12.7255" x2="13.1232" y2="20.11" gradientUnits="userSpaceOnUse">
<stop offset="0.23" stop-color="#304C1A"/>
<stop offset="0.51" stop-color="#477342"/>
<stop offset="0.84" stop-color="#86A75F"/>
</linearGradient>
<linearGradient id="paint59_linear_2_15" x1="9.68645" y1="14.8805" x2="10.4076" y2="22.2352" gradientUnits="userSpaceOnUse">
<stop offset="0.23" stop-color="#304C1A"/>
<stop offset="0.51" stop-color="#477342"/>
<stop offset="0.84" stop-color="#86A75F"/>
</linearGradient>
<linearGradient id="paint60_linear_2_15" x1="8.46016" y1="15.5935" x2="9.16374" y2="22.7691" gradientUnits="userSpaceOnUse">
<stop offset="0.23" stop-color="#304C1A"/>
<stop offset="0.51" stop-color="#477342"/>
<stop offset="0.84" stop-color="#86A75F"/>
</linearGradient>
<linearGradient id="paint61_linear_2_15" x1="7.2255" y1="16.016" x2="7.91053" y2="23.0025" gradientUnits="userSpaceOnUse">
<stop offset="0.23" stop-color="#304C1A"/>
<stop offset="0.51" stop-color="#477342"/>
<stop offset="0.84" stop-color="#86A75F"/>
</linearGradient>
<linearGradient id="paint62_linear_2_15" x1="4.66369" y1="17.3524" x2="5.29505" y2="23.7915" gradientUnits="userSpaceOnUse">
<stop stop-color="#304C1A"/>
<stop offset="0.34" stop-color="#477342"/>
<stop offset="0.84" stop-color="#86A75F"/>
</linearGradient>
<linearGradient id="paint63_linear_2_15" x1="18.5658" y1="8.90547" x2="18.7238" y2="10.5178" gradientUnits="userSpaceOnUse">
<stop stop-color="#304C1A"/>
<stop offset="0.34" stop-color="#477342"/>
<stop offset="0.84" stop-color="#86A75F"/>
</linearGradient>
<linearGradient id="paint64_linear_2_15" x1="16.7447" y1="10.0084" x2="16.9769" y2="12.3771" gradientUnits="userSpaceOnUse">
<stop stop-color="#304C1A"/>
<stop offset="0.34" stop-color="#477342"/>
<stop offset="0.84" stop-color="#86A75F"/>
</linearGradient>
<linearGradient id="paint65_linear_2_15" x1="12.7123" y1="11.8206" x2="12.9943" y2="14.6968" gradientUnits="userSpaceOnUse">
<stop stop-color="#304C1A"/>
<stop offset="0.34" stop-color="#477342"/>
<stop offset="0.84" stop-color="#86A75F"/>
</linearGradient>
<linearGradient id="paint66_linear_2_15" x1="10.4574" y1="13.9307" x2="10.7043" y2="16.4486" gradientUnits="userSpaceOnUse">
<stop stop-color="#304C1A"/>
<stop offset="0.34" stop-color="#477342"/>
<stop offset="0.84" stop-color="#86A75F"/>
</linearGradient>
<linearGradient id="paint67_linear_2_15" x1="7.84917" y1="15.6132" x2="8.1546" y2="18.7283" gradientUnits="userSpaceOnUse">
<stop stop-color="#304C1A"/>
<stop offset="0.34" stop-color="#477342"/>
<stop offset="0.84" stop-color="#86A75F"/>
</linearGradient>
<radialGradient id="paint68_radial_2_15" cx="0" cy="0" r="1" gradientUnits="userSpaceOnUse" gradientTransform="translate(25.2811 7.35393) rotate(-42.31) scale(2.39)">
<stop offset="0.1" stop-color="#EF364E"/>
<stop offset="0.25" stop-color="#EB024B"/>
<stop offset="0.76" stop-color="#8E024B"/>
<stop offset="1" stop-color="#BE024B"/>
</radialGradient>
<linearGradient id="paint69_linear_2_15" x1="30.2235" y1="28.085" x2="25.1466" y2="14.0513" gradientUnits="userSpaceOnUse">
<stop offset="0.16" stop-color="#86A75F"/>
<stop offset="0.52" stop-color="#477342"/>
<stop offset="1" stop-color="#304C1A"/>
</linearGradient>
<linearGradient id="paint70_linear_2_15" x1="27.6258" y1="11.9954" x2="16.5274" y2="27.0411" gradientUnits="userSpaceOnUse">
<stop stop-color="#304C1A"/>
<stop offset="0.34" stop-color="#5E8742"/>
<stop offset="0.69" stop-color="#92AF5F"/>
</linearGradient>
<radialGradient id="paint71_radial_2_15" cx="0" cy="0" r="1" gradientUnits="userSpaceOnUse" gradientTransform="translate(25.7709 9.7342) rotate(-42.3101) scale(2.39)">
<stop offset="0.1" stop-color="#EF364E"/>
<stop offset="0.25" stop-color="#EB024B"/>
<stop offset="0.76" stop-color="#8E024B"/>
<stop offset="1" stop-color="#BE024B"/>
</radialGradient>
<linearGradient id="paint72_linear_2_15" x1="32.5224" y1="15.1854" x2="29.4295" y2="5.46992" gradientUnits="userSpaceOnUse">
<stop offset="0.16" stop-color="#86A75F"/>
<stop offset="0.66" stop-color="#477342"/>
<stop offset="1" stop-color="#304C1A"/>
</linearGradient>
<linearGradient id="paint73_linear_2_15" x1="30.5627" y1="13.2462" x2="39.5342" y2="12.0292" gradientUnits="userSpaceOnUse">
<stop stop-color="#304C1A"/>
<stop offset="0.34" stop-color="#5E8742"/>
<stop offset="0.69" stop-color="#92AF5F"/>
</linearGradient>
<radialGradient id="paint74_radial_2_15" cx="0" cy="0" r="1" gradientUnits="userSpaceOnUse" gradientTransform="translate(27.8555 7.55275) rotate(-42.31) scale(2.39)">
<stop offset="0.1" stop-color="#EF364E"/>
<stop offset="0.25" stop-color="#EB024B"/>
<stop offset="0.76" stop-color="#8E024B"/>
<stop offset="1" stop-color="#BE024B"/>
</radialGradient>
</defs>
</svg>
